  0
SECTION
  2
HEADER
  9
$ACADVER
  1
AC1018
  9
$ACADMAINTVER
 70
     0
  9
$DWGCODEPAGE
  3
ANSI_1252
  9
$EXTMIN
 10
368000
 20
4066000
 30
0.0
  9
$EXTMAX
 10
369000
 20
4067000
 30
0.0
  9
$LIMMIN
 10
0.0
 20
0.0
  9
$LIMMAX
 10
12.0
 20
9.0
  9
$ORTHOMODE
 70
     0
  9
$REGENMODE
 70
     1
  9
$FILLMODE
 70
     1
  9
$QTEXTMODE
 70
     0
  9
$MIRRTEXT
 70
     1
  9
$LTSCALE
 40
1.0
  9
$ATTMODE
 70
     1
  9
$TEXTSIZE
 40
0.2
  9
$TRACEWID
 40
0.05
  9
$TEXTSTYLE
  7
Standard
  9
$CLAYER
  8
0
  9
$CELTYPE
  6
ByLayer
  9
$CECOLOR
 62
   256
  9
$CELTSCALE
 40
1.0
  9
$DISPSILH
 70
     0
  9
$LUNITS
 70
     2
  9
$LUPREC
 70
     4
  9
$SKETCHINC
 40
0.1
  9
$FILLETRAD
 40
0.5
  9
$AUNITS
 70
     0
  9
$AUPREC
 70
     0
  9
$MENU
  1
.
  9
$ELEVATION
 40
0.0
  9
$PELEVATION
 40
0.0
  9
$THICKNESS
 40
0.0
  9
$LIMCHECK
 70
     0
  9
$CHAMFERA
 40
0.5
  9
$CHAMFERB
 40
0.5
  9
$CHAMFERC
 40
1.0
  9
$CHAMFERD
 40
0.0
  9
$SKPOLY
 70
     0
  9
$ANGBASE
 50
0.0
  9
$ANGDIR
 70
     0
  9
$PDMODE
 70
     0
  9
$PDSIZE
 40
0.0
  9
$PLINEWID
 40
0.0
  9
$SPLFRAME
 70
     0
  9
$SPLINETYPE
 70
     6
  9
$SPLINESEGS
 70
     8
  9
$HANDSEED
  5
00020124
  9
$SURFTAB1
 70
     6
  9
$SURFTAB2
 70
     6
  9
$SURFTYPE
 70
     6
  9
$SURFU
 70
     6
  9
$SURFV
 70
     6
  9
$UCSBASE
  2

  9
$UCSNAME
  2

  9
$UCSORG
 10
0.0
 20
0.0
 30
0.0
  9
$UCSXDIR
 10
1.0
 20
0.0
 30
0.0
  9
$UCSYDIR
 10
0.0
 20
1.0
 30
0.0
  9
$UCSORTHOREF
  2

  9
$UCSORTHOVIEW
 70
     0
  9
$UCSORGTOP
 10
0.0
 20
0.0
 30
0.0
  9
$UCSORGBOTTOM
 10
0.0
 20
0.0
 30
0.0
  9
$UCSORGLEFT
 10
0.0
 20
0.0
 30
0.0
  9
$UCSORGRIGHT
 10
0.0
 20
0.0
 30
0.0
  9
$UCSORGFRONT
 10
0.0
 20
0.0
 30
0.0
  9
$UCSORGBACK
 10
0.0
 20
0.0
 30
0.0
  9
$PUCSBASE
  2

  9
$PUCSNAME
  2

  9
$PUCSORG
 10
0.0
 20
0.0
 30
0.0
  9
$PUCSXDIR
 10
1.0
 20
0.0
 30
0.0
  9
$PUCSYDIR
 10
0.0
 20
1.0
 30
0.0
  9
$PUCSORTHOREF
  2

  9
$PUCSORTHOVIEW
 70
     0
  9
$PUCSORGTOP
 10
0.0
 20
0.0
 30
0.0
  9
$PUCSORGBOTTOM
 10
0.0
 20
0.0
 30
0.0
  9
$PUCSORGLEFT
 10
0.0
 20
0.0
 30
0.0
  9
$PUCSORGRIGHT
 10
0.0
 20
0.0
 30
0.0
  9
$PUCSORGFRONT
 10
0.0
 20
0.0
 30
0.0
  9
$PUCSORGBACK
 10
0.0
 20
0.0
 30
0.0
  9
$WORLDVIEW
 70
     1
  9
$SHADEDGE
 70
     3
  9
$SHADEDIF
 70
    70
  9
$TILEMODE
 70
     1
  9
$MAXACTVP
 70
    64
  9
$PINSBASE
 10
0.0
 20
0.0
 30
0.0
  9
$PLIMCHECK
 70
     0
  9
$PEXTMIN
 10
1.000000000000000E+20
 20
1.000000000000000E+20
 30
1.000000000000000E+20
  9
$PEXTMAX
 10
-1.000000000000000E+20
 20
-1.000000000000000E+20
 30
-1.000000000000000E+20
  9
$PLIMMIN
 10
0.0
 20
0.0
  9
$PLIMMAX
 10
12.0
 20
9.0
  9
$UNITMODE
 70
     0
  9
$VISRETAIN
 70
     1
  9
$PLINEGEN
 70
     0
  9
$PSLTSCALE
 70
     1
  9
$TREEDEPTH
 70
  3020
  9
$CMLSTYLE
  2
Standard
  9
$CMLJUST
 70
     0
  9
$CMLSCALE
 40
1.0
  9
$PROXYGRAPHICS
 70
     1
  9
$MEASUREMENT
 70
     0
  9
$CELWEIGHT
370
    -1
  9
$ENDCAPS
280
     0
  9
$JOINSTYLE
280
     0
  9
$LWDISPLAY
290
     0
  9
$INSUNITS
 70
     1
  9
$HYPERLINKBASE
  1

  9
$STYLESHEET
  1

  9
$XEDIT
290
     1
  9
$CEPSNTYPE
380
     0
  9
$PSTYLEMODE
290
     1
  9
$EXTNAMES
290
     1
  9
$PSVPSCALE
 40
0.0
  9
$OLESTARTUP
290
     0
  9
$SORTENTS
280
   127
  9
$INDEXCTL
280
     0
  9
$HIDETEXT
280
     1
  9
$XCLIPFRAME
290
     0
  9
$HALOGAP
280
     0
  9
$OBSCOLOR
 70
   257
  9
$OBSLTYPE
280
     0
  9
$INTERSECTIONDISPLAY
280
     0
  9
$INTERSECTIONCOLOR
 70
   257
  9
$DIMASSOC
280
     2
  9
$PROJECTNAME
  1

  0
ENDSEC
  0
SECTION
  2
CLASSES
  0
CLASS
  1
ACDBDICTIONARYWDFLT
  2
AcDbDictionaryWithDefault
  3
ObjectDBX Classes
 90
        0
 91
        4
280
     0
281
     0
  0
ENDSEC
  0
SECTION
  2
TABLES
  0
TABLE
  2
VPORT
  5
8
330
0
100
AcDbSymbolTable
 70
     1
  0
VPORT
  5
29
330
8
100
AcDbSymbolTableRecord
100
AcDbViewportTableRecord
  2
*Active
 70
     0
 10
0.0
 20
0.0
 11
1.0
 21
1.0
 12
80.25
 22
106.4409457059851
 13
0.0
 23
0.0
 14
0.5
 24
0.5
 15
0.5
 25
0.5
 16
0.0
 26
0.0
 36
1.0
 17
0.0
 27
0.0
 37
0.0
 40
113.3818914119703
 41
0.8863849310366128
 42
50.0
 43
0.0
 44
0.0
 50
0.0
 51
0.0
 71
     0
 72
  1000
 73
     1
 74
     3
 75
     0
 76
     0
 77
     0
 78
     0
281
     0
 65
     1
110
0.0
120
0.0
130
0.0
111
1.0
121
0.0
131
0.0
112
0.0
122
1.0
132
0.0
 79
     0
146
0.0
  0
ENDTAB
  0
TABLE
  2
LTYPE
  5
5
330
0
100
AcDbSymbolTable
 70
     1
  0
LTYPE
  5
14
330
5
100
AcDbSymbolTableRecord
100
AcDbLinetypeTableRecord
  2
ByBlock
 70
     0
  3

 72
    65
 73
     0
 40
0.0
  0
LTYPE
  5
15
330
5
100
AcDbSymbolTableRecord
100
AcDbLinetypeTableRecord
  2
ByLayer
 70
     0
  3

 72
    65
 73
     0
 40
0.0
  0
LTYPE
  5
16
330
5
100
AcDbSymbolTableRecord
100
AcDbLinetypeTableRecord
  2
Continuous
 70
     0
  3
Solid line
 72
    65
 73
     0
 40
0.0
  0
ENDTAB
  0
TABLE
  2
LAYER
  5
2
330
0
100
AcDbSymbolTable
 70
     1
  0
LAYER
  5
10
330
2
100
AcDbSymbolTableRecord
100
AcDbLayerTableRecord
  2
0
 70
     0
 62
     7
  6
Continuous
370
    -3
390
F
  0
LAYER
  5
2011B
330
2
100
AcDbSymbolTableRecord
100
AcDbLayerTableRecord
  2
service
 70
     0
 62
     7
  6
Continuous
370
    -3
390
F
  0
LAYER
  5
2011C
330
2
100
AcDbSymbolTableRecord
100
AcDbLayerTableRecord
  2
residential
 70
     0
 62
     7
  6
Continuous
370
    -3
390
F
  0
LAYER
  5
2011D
330
2
100
AcDbSymbolTableRecord
100
AcDbLayerTableRecord
  2
footway
 70
     0
 62
     7
  6
Continuous
370
    -3
390
F
  0
LAYER
  5
2011E
330
2
100
AcDbSymbolTableRecord
100
AcDbLayerTableRecord
  2
steps
 70
     0
 62
     7
  6
Continuous
370
    -3
390
F
  0
LAYER
  5
2011F
330
2
100
AcDbSymbolTableRecord
100
AcDbLayerTableRecord
  2
tertiary
 70
     0
 62
     7
  6
Continuous
370
    -3
390
F
  0
LAYER
  5
20120
330
2
100
AcDbSymbolTableRecord
100
AcDbLayerTableRecord
  2
unknown
 70
     0
 62
     7
  6
Continuous
370
    -3
390
F
  0
LAYER
  5
20121
330
2
100
AcDbSymbolTableRecord
100
AcDbLayerTableRecord
  2
cycleway
 70
     0
 62
     7
  6
Continuous
370
    -3
390
F
  0
LAYER
  5
20122
330
2
100
AcDbSymbolTableRecord
100
AcDbLayerTableRecord
  2
primary
 70
     0
 62
     7
  6
Continuous
370
    -3
390
F
  0
LAYER
  5
20123
330
2
100
AcDbSymbolTableRecord
100
AcDbLayerTableRecord
  2
unclassified
 70
     0
 62
     7
  6
Continuous
370
    -3
390
F
  0
ENDTAB
  0
TABLE
  2
STYLE
  5
3
330
0
100
AcDbSymbolTable
 70
     1
  0
STYLE
  5
11
330
3
100
AcDbSymbolTableRecord
100
AcDbTextStyleTableRecord
  2
Standard
 70
     0
 40
0.0
 41
1.0
 50
0.0
 71
     0
 42
0.2
  3
txt
  4

  0
ENDTAB
  0
TABLE
  2
VIEW
  5
6
330
0
100
AcDbSymbolTable
 70
     0
  0
ENDTAB
  0
TABLE
  2
UCS
  5
7
330
0
100
AcDbSymbolTable
 70
     0
  0
ENDTAB
  0
TABLE
  2
APPID
  5
9
330
0
100
AcDbSymbolTable
 70
     1
  0
APPID
  5
12
330
9
100
AcDbSymbolTableRecord
100
AcDbRegAppTableRecord
  2
ACAD
 70
     0
  0
ENDTAB
  0
TABLE
  2
DIMSTYLE
  5
A
330
0
100
AcDbSymbolTable
 70
     1
100
AcDbDimStyleTable
  0
DIMSTYLE
105
27
330
A
100
AcDbSymbolTableRecord
100
AcDbDimStyleTableRecord
  2
Standard
 70
     0
340
11
  0
ENDTAB
  0
TABLE
  2
BLOCK_RECORD
  5
1
330
0
100
AcDbSymbolTable
 70
     1
  0
BLOCK_RECORD
  5
1F
330
1
100
AcDbSymbolTableRecord
100
AcDbBlockTableRecord
  2
*Model_Space
340
22
  0
BLOCK_RECORD
  5
1B
330
1
100
AcDbSymbolTableRecord
100
AcDbBlockTableRecord
  2
*Paper_Space
340
1E
  0
ENDTAB
  0
ENDSEC
  0
SECTION
  2
BLOCKS
  0
BLOCK
  5
20
330
1F
100
AcDbEntity
  8
0
100
AcDbBlockBegin
  2
*Model_Space
 70
     0
 10
0.0
 20
0.0
 30
0.0
  3
*Model_Space
  1

  0
ENDBLK
  5
21
330
1F
100
AcDbEntity
  8
0
100
AcDbBlockEnd
  0
BLOCK
  5
1C
330
1B
100
AcDbEntity
 67
     1
  8
0
100
AcDbBlockBegin
  2
*Paper_Space
 70
     0
 10
0.0
 20
0.0
 30
0.0
  3
*Paper_Space
  1

  0
ENDBLK
  5
1D
330
1B
100
AcDbEntity
 67
     1
  8
0
100
AcDbBlockEnd
  0
ENDSEC
  0
SECTION
  2
ENTITIES
  0
LWPOLYLINE
  5
20000
100
AcDbEntity
  8
service
100
AcDbPolyline
 70
0
 90
2
 10
368484.819026996
 20
4066000
 10
368484.817162541
 20
4066000.06951909
  0
LWPOLYLINE
  5
20001
100
AcDbEntity
  8
residential
100
AcDbPolyline
 70
0
 90
2
 10
368484.817162541
 20
4066000.06951909
 10
368484.701933841
 20
4066000
  0
LWPOLYLINE
  5
20002
100
AcDbEntity
  8
residential
100
AcDbPolyline
 70
0
 90
2
 10
368422.05472561
 20
4066000
 10
368416.758018985
 20
4066005.39960076
  0
LWPOLYLINE
  5
20003
100
AcDbEntity
  8
footway
100
AcDbPolyline
 70
0
 90
4
 10
368376.788841438
 20
4066000.23335018
 10
368385.419245796
 20
4066000.37794639
 10
368397.433864558
 20
4066002.20153058
 10
368405.219139768
 20
4066004.88915355
  0
LWPOLYLINE
  5
20004
100
AcDbEntity
  8
residential
100
AcDbPolyline
 70
0
 90
6
 10
368407.713537367
 20
4066002.14322725
 10
368409.641221257
 20
4066001.45887403
 10
368411.677032552
 20
4066001.41645473
 10
368413.633275465
 20
4066002.0077607
 10
368415.294953009
 20
4066003.19171367
 10
368416.758018985
 20
4066005.39960076
  0
LWPOLYLINE
  5
20005
100
AcDbEntity
  8
residential
100
AcDbPolyline
 70
0
 90
13
 10
368416.758018985
 20
4066005.39960076
 10
368417.191208359
 20
4066008.0117104
 10
368416.524845241
 20
4066010.56306138
 10
368414.868531107
 20
4066012.63030068
 10
368412.511485503
 20
4066013.85389095
 10
368409.86123254
 20
4066014.01672902
 10
368407.373016943
 20
4066013.10071405
 10
368405.486955346
 20
4066011.2655215
 10
368404.502849877
 20
4066008.83943307
 10
368404.587581592
 20
4066006.21935483
 10
368405.219139768
 20
4066004.88915355
 10
368405.721190091
 20
4066003.84945405
 10
368407.713537367
 20
4066002.14322725
  0
LWPOLYLINE
  5
20006
100
AcDbEntity
  8
footway
100
AcDbPolyline
 70
0
 90
6
 10
368392.874304135
 20
4066042.5519979
 10
368376.718120964
 20
4066028.71916383
 10
368368.848322782
 20
4066024.60141904
 10
368374.295849579
 20
4066012.35580997
 10
368376.788841438
 20
4066000.23335018
 10
368376.816779488
 20
4066000
  0
LWPOLYLINE
  5
20007
100
AcDbEntity
  8
footway
100
AcDbPolyline
 70
0
 90
2
 10
368491.10788736
 20
4066019.41385083
 10
368490.889747635
 20
4066023.23440025
  0
LWPOLYLINE
  5
20008
100
AcDbEntity
  8
residential
100
AcDbPolyline
 70
0
 90
6
 10
368475.768123034
 20
4066060.98419577
 10
368480.928365969
 20
4066031.21060987
 10
368482.396959684
 20
4066022.74359111
 10
368483.028933748
 20
4066019.11641452
 10
368484.612730978
 20
4066004.20055978
 10
368484.817162541
 20
4066000.06951909
  0
LWPOLYLINE
  5
20009
100
AcDbEntity
  8
steps
100
AcDbPolyline
 70
0
 90
2
 10
368392.874304135
 20
4066042.5519979
 10
368406.121245681
 20
4066049.00606329
  0
LWPOLYLINE
  5
2000A
100
AcDbEntity
  8
service
100
AcDbPolyline
 70
0
 90
2
 10
368316.275087193
 20
4066033.85517286
 10
368328.46056456
 20
4066037.49585536
  0
LWPOLYLINE
  5
2000B
100
AcDbEntity
  8
tertiary
100
AcDbPolyline
 70
0
 90
9
 10
368218.352815858
 20
4066237.14247789
 10
368222.946741173
 20
4066209.51903928
 10
368231.557191439
 20
4066190.41132509
 10
368238.075829343
 20
4066179.88016605
 10
368243.400871406
 20
4066171.29819509
 10
368299.886576414
 20
4066114.56831198
 10
368309.401666777
 20
4066096.76724425
 10
368328.46056456
 20
4066037.49585536
 10
368339.749833926
 20
4066000
  0
LWPOLYLINE
  5
2000C
100
AcDbEntity
  8
footway
100
AcDbPolyline
 70
0
 90
46
 10
368169.834415403
 20
4066196.46695842
 10
368169.00775336
 20
4066199.04299729
 10
368164.184466735
 20
4066198.45155922
 10
368159.462259297
 20
4066193.4088614
 10
368154.386734405
 20
4066186.88467942
 10
368151.947889973
 20
4066179.32116321
 10
368151.96305608
 20
4066175.67017457
 10
368151.97096728
 20
4066172.70728199
 10
368151.975079999
 20
4066170.07734355
 10
368155.1682321
 20
4066162.26055215
 10
368173.707436725
 20
4066127.29814408
 10
368177.899510313
 20
4066119.96530896
 10
368181.883873108
 20
4066109.00711693
 10
368191.870936876
 20
4066078.95917743
 10
368193.86517811
 20
4066068.68635928
 10
368192.774707614
 20
4066038.49845208
 10
368192.436819257
 20
4066029.90386079
 10
368187.978601932
 20
4066020.55162921
 10
368183.521285638
 20
4066012.99702114
 10
368172.758078084
 20
4066007.18189438
 10
368158.900784724
 20
4066008.08348238
 10
368135.78090617
 20
4066015.34194879
 10
368127.247221534
 20
4066017.41541693
 10
368092.29290479
 20
4066016.00146559
 10
368084.007220846
 20
4066020.83418589
 10
368081.802268032
 20
4066030.17817643
 10
368083.219502159
 20
4066039.83248234
 10
368085.265577568
 20
4066049.72121256
 10
368091.247590738
 20
4066059.41607798
 10
368099.061088849
 20
4066065.08795329
 10
368103.882093869
 20
4066064.94702284
 10
368105.437945737
 20
4066064.47916771
 10
368108.83403134
 20
4066063.45030055
 10
368111.245493823
 20
4066064.60044011
 10
368114.018041427
 20
4066063.68105945
 10
368115.271274917
 20
4066060.96527938
 10
368115.134794811
 20
4066057.32772572
 10
368108.865179845
 20
4066050.41140979
 10
368105.238108829
 20
4066048.62532294
 10
368101.097463134
 20
4066048.86672467
 10
368099.170634586
 20
4066050.18363738
 10
368098.368403182
 20
4066052.02693568
 10
368099.08463636
 20
4066055.61116196
 10
368100.248787989
 20
4066058.12321434
 10
368102.804668122
 20
4066059.37099303
 10
368106.077831385
 20
4066060.79635144
  0
LWPOLYLINE
  5
2000D
100
AcDbEntity
  8
footway
100
AcDbPolyline
 70
0
 90
2
 10
368196.311068974
 20
4066187.9805963
 10
368200.428941711
 20
4066178.15219841
  0
LWPOLYLINE
  5
2000E
100
AcDbEntity
  8
steps
100
AcDbPolyline
 70
0
 90
6
 10
368200.428941711
 20
4066178.15219841
 10
368190.050659201
 20
4066174.11766484
 10
368184.241383751
 20
4066172.72026933
 10
368180.191632434
 20
4066173.06010302
 10
368176.464794063
 20
4066177.54505886
 10
368169.834415403
 20
4066196.46695842
  0
LWPOLYLINE
  5
2000F
100
AcDbEntity
  8
steps
100
AcDbPolyline
 70
0
 90
2
 10
368217.288691474
 20
4066197.06716235
 10
368196.311068974
 20
4066187.9805963
  0
LWPOLYLINE
  5
20010
100
AcDbEntity
  8
residential
100
AcDbPolyline
 70
0
 90
7
 10
368118.535870542
 20
4066224.01159534
 10
368117.210489781
 20
4066215.67635338
 10
368118.501015388
 20
4066206.11344326
 10
368131.107270443
 20
4066186.0784713
 10
368138.475532697
 20
4066180.26124811
 10
368144.457185507
 20
4066176.61813505
 10
368151.96305608
 20
4066175.67017457
  0
LWPOLYLINE
  5
20011
100
AcDbEntity
  8
service
100
AcDbPolyline
 70
0
 90
5
 10
368289.204988845
 20
4066231.76771569
 10
368282.724065049
 20
4066225.03208067
 10
368247.947236686
 20
4066189.85920044
 10
368240.462078093
 20
4066182.29573116
 10
368238.075829343
 20
4066179.88016605
  0
LWPOLYLINE
  5
20012
100
AcDbEntity
  8
footway
100
AcDbPolyline
 70
0
 90
4
 10
368211.677859669
 20
4066236.94573278
 10
368214.018809283
 20
4066213.81780718
 10
368219.021496207
 20
4066197.65076924
 10
368217.288691474
 20
4066197.06716235
  0
LWPOLYLINE
  5
20013
100
AcDbEntity
  8
service
100
AcDbPolyline
 70
0
 90
6
 10
368266.488355646
 20
4066238.49810626
 10
368282.724065049
 20
4066225.03208067
 10
368301.482235795
 20
4066209.48548466
 10
368310.042524378
 20
4066218.43060895
 10
368296.326601206
 20
4066229.64956811
 10
368289.204988845
 20
4066231.76771569
  0
LWPOLYLINE
  5
20014
100
AcDbEntity
  8
footway
100
AcDbPolyline
 70
0
 90
2
 10
368412.111607822
 20
4066051.72130875
 10
368406.121245681
 20
4066049.00606329
  0
LWPOLYLINE
  5
20015
100
AcDbEntity
  8
footway
100
AcDbPolyline
 70
0
 90
2
 10
368371.861421053
 20
4066067.16562303
 10
368400.723535646
 20
4066079.58230903
  0
LWPOLYLINE
  5
20016
100
AcDbEntity
  8
unknown
100
AcDbPolyline
 70
0
 90
3
 10
368442.488326235
 20
4066085.37572767
 10
368428.034099982
 20
4066082.30242247
 10
368413.158802618
 20
4066079.14684781
  0
LWPOLYLINE
  5
20017
100
AcDbEntity
  8
residential
100
AcDbPolyline
 70
0
 90
8
 10
368386.406853514
 20
4066114.46809921
 10
368392.885283113
 20
4066108.85344029
 10
368400.723535646
 20
4066079.58230903
 10
368405.434843838
 20
4066065.92769529
 10
368412.111607822
 20
4066051.72130875
 10
368447.965254593
 20
4066068.06971051
 10
368454.240193201
 20
4066054.44655856
 10
368475.768123034
 20
4066060.98419577
  0
LWPOLYLINE
  5
20018
100
AcDbEntity
  8
steps
100
AcDbPolyline
 70
0
 90
2
 10
368362.464341551
 20
4066088.58225799
 10
368360.62833766
 20
4066081.87493881
  0
LWPOLYLINE
  5
20019
100
AcDbEntity
  8
unknown
100
AcDbPolyline
 70
0
 90
3
 10
368469.904531006
 20
4066087.41746183
 10
368452.397173884
 20
4066085.02357246
 10
368442.488326235
 20
4066085.37572767
  0
LWPOLYLINE
  5
2001A
100
AcDbEntity
  8
footway
100
AcDbPolyline
 70
0
 90
2
 10
368364.772950691
 20
4066096.98006869
 10
368362.464341551
 20
4066088.58225799
  0
LWPOLYLINE
  5
2001B
100
AcDbEntity
  8
steps
100
AcDbPolyline
 70
0
 90
3
 10
368365.751133081
 20
4066098.44084809
 10
368365.259199263
 20
4066097.81591893
 10
368364.772950691
 20
4066096.98006869
  0
LWPOLYLINE
  5
2001C
100
AcDbEntity
  8
residential
100
AcDbPolyline
 70
0
 90
4
 10
368469.297667541
 20
4066135.65218566
 10
368467.041904636
 20
4066111.51870044
 10
368469.904531006
 20
4066087.41746183
 10
368475.768123034
 20
4066060.98419577
  0
LWPOLYLINE
  5
2001D
100
AcDbEntity
  8
unknown
100
AcDbPolyline
 70
0
 90
6
 10
368442.488326235
 20
4066085.37572767
 10
368438.837756208
 20
4066089.60416836
 10
368433.414346316
 20
4066095.29133224
 10
368425.850847466
 20
4066101.78817931
 10
368412.863122405
 20
4066113.91674182
 10
368407.171162848
 20
4066117.82151878
  0
LWPOLYLINE
  5
2001E
100
AcDbEntity
  8
service
100
AcDbPolyline
 70
0
 90
7
 10
368469.904531006
 20
4066087.41746183
 10
368478.36210758
 20
4066087.36506892
 10
368533.818713305
 20
4066087.8994755
 10
368538.161949032
 20
4066092.70407443
 10
368536.921038458
 20
4066115.40438793
 10
368532.088207853
 20
4066118.84091681
 10
368524.654500744
 20
4066118.67778082
  0
LWPOLYLINE
  5
2001F
100
AcDbEntity
  8
footway
100
AcDbPolyline
 70
0
 90
3
 10
368392.885283113
 20
4066108.85344029
 10
368369.910045108
 20
4066101.12877001
 10
368365.751133081
 20
4066098.44084809
  0
LWPOLYLINE
  5
20020
100
AcDbEntity
  8
residential
100
AcDbPolyline
 70
0
 90
2
 10
368469.297667541
 20
4066135.65218566
 10
368523.166236481
 20
4066139.229181
  0
LWPOLYLINE
  5
20021
100
AcDbEntity
  8
cycleway
100
AcDbPolyline
 70
0
 90
74
 10
368913.194701971
 20
4066000
 10
368913.960878984
 20
4066002.10320731
 10
368915.227440937
 20
4066004.90229902
 10
368912.907231281
 20
4066007.36798883
 10
368909.538752161
 20
4066011.36996373
 10
368907.897787964
 20
4066016.77690602
 10
368906.855125568
 20
4066019.84441834
 10
368904.870863207
 20
4066018.58764229
 10
368900.314585509
 20
4066017.93621229
 10
368895.07904617
 20
4066020.16918435
 10
368887.976514103
 20
4066025.88178484
 10
368885.511400328
 20
4066029.38167641
 10
368882.458292414
 20
4066029.48396514
 10
368863.960541119
 20
4066030.06717719
 10
368856.208287127
 20
4066031.85051813
 10
368850.414625576
 20
4066036.71084544
 10
368849.958110354
 20
4066038.39341413
 10
368838.959911343
 20
4066047.50583752
 10
368837.634574915
 20
4066047.28204055
 10
368829.022652904
 20
4066054.1607787
 10
368816.90769608
 20
4066063.83408815
 10
368795.713241988
 20
4066080.75954689
 10
368780.836574081
 20
4066092.63909396
 10
368736.657325481
 20
4066125.04190648
 10
368699.969831542
 20
4066146.244548
 10
368672.958628439
 20
4066158.34389249
 10
368625.320452821
 20
4066176.00880661
 10
368610.206507046
 20
4066180.55753184
 10
368587.889985713
 20
4066187.19213318
 10
368581.320543641
 20
4066189.2127763
 10
368524.983449643
 20
4066202.2404513
 10
368497.66354866
 20
4066209.34059225
 10
368467.164041347
 20
4066217.02235751
 10
368461.40763086
 20
4066218.47576511
 10
368453.489199485
 20
4066220.47287175
 10
368426.137668759
 20
4066227.25193412
 10
368292.779713799
 20
4066260.31947058
 10
368242.901035702
 20
4066272.77242832
 10
368242.02312008
 20
4066269.12410408
 10
368240.095787953
 20
4066261.13101768
 10
368239.580607399
 20
4066258.99732762
 10
368237.069843547
 20
4066259.51316202
 10
368232.629710162
 20
4066258.86030099
 10
368227.983464904
 20
4066256.42407897
 10
368224.572814832
 20
4066253.02561617
 10
368222.15947968
 20
4066247.69208939
 10
368221.053307748
 20
4066241.98333212
 10
368219.317052902
 20
4066241.75486687
 10
368216.020015881
 20
4066241.67251495
 10
368213.921241388
 20
4066241.68266402
 10
368212.355435074
 20
4066244.98026594
 10
368209.948547999
 20
4066248.17986458
 10
368206.341349741
 20
4066251.15383857
 10
368202.237428873
 20
4066253.19226545
 10
368165.783802144
 20
4066262.22079441
 10
368161.385051746
 20
4066264.25269009
 10
368157.585910755
 20
4066266.94113526
 10
368154.22804357
 20
4066270.44392153
 10
368149.918584447
 20
4066278.26683079
 10
368147.806950459
 20
4066280.91816679
 10
368144.42938729
 20
4066283.72218021
 10
368140.163020646
 20
4066286.22919684
 10
368129.304531753
 20
4066291.01278373
 10
368121.373919791
 20
4066295.10763472
 10
368111.151976247
 20
4066300.62489644
 10
368100.603186135
 20
4066307.53427771
 10
368092.067361118
 20
4066313.50270805
 10
368079.189149623
 20
4066325.15297525
 10
368062.360374988
 20
4066344.14353494
 10
368053.262633936
 20
4066359.41956688
 10
368035.875696626
 20
4066393.7431044
 10
368020.388332187
 20
4066426.71688031
 10
368012.134541237
 20
4066442.84546918
 10
368000
 20
4066466.79077693
  0
LWPOLYLINE
  5
20022
100
AcDbEntity
  8
residential
100
AcDbPolyline
 70
0
 90
3
 10
368480.765600222
 20
4066201.25587602
 10
368477.354312631
 20
4066184.45275237
 10
368469.297667541
 20
4066135.65218566
  0
LWPOLYLINE
  5
20023
100
AcDbEntity
  8
primary
100
AcDbPolyline
 70
0
 90
6
 10
368227.923679201
 20
4066264.13707911
 10
368240.095787953
 20
4066261.13101768
 10
368245.416986466
 20
4066259.83951462
 10
368274.564018274
 20
4066252.51067123
 10
368427.273590449
 20
4066214.58444248
 10
368480.765600222
 20
4066201.25587602
  0
LWPOLYLINE
  5
20024
100
AcDbEntity
  8
primary
100
AcDbPolyline
 70
0
 90
7
 10
368460.766067968
 20
4066215.09010323
 10
368447.128308417
 20
4066218.62882926
 10
368414.79451401
 20
4066226.67189639
 10
368269.573577286
 20
4066262.51892096
 10
368247.62920232
 20
4066267.7727304
 10
368242.02312008
 20
4066269.12410408
 10
368230.045419336
 20
4066271.99400955
  0
LWPOLYLINE
  5
20025
100
AcDbEntity
  8
unknown
100
AcDbPolyline
 70
0
 90
6
 10
368407.892075972
 20
4066291.79253497
 10
368415.125356047
 20
4066279.51946343
 10
368417.411935723
 20
4066272.56006078
 10
368421.263580038
 20
4066258.18630594
 10
368425.323392935
 20
4066241.66772547
 10
368426.137668759
 20
4066227.25193412
  0
LWPOLYLINE
  5
20026
100
AcDbEntity
  8
tertiary
100
AcDbPolyline
 70
0
 90
11
 10
368460.766067968
 20
4066215.09010323
 10
368461.40763086
 20
4066218.47576511
 10
368462.993165286
 20
4066226.90691309
 10
368467.779953702
 20
4066252.42182447
 10
368466.487574991
 20
4066270.01856302
 10
368462.84920133
 20
4066283.74541716
 10
368456.893394655
 20
4066296.62019973
 10
368444.859990547
 20
4066316.19090046
 10
368434.087053598
 20
4066335.83100093
 10
368426.499535659
 20
4066350.04030086
 10
368421.406205739
 20
4066359.17341739
  0
LWPOLYLINE
  5
20027
100
AcDbEntity
  8
residential
100
AcDbPolyline
 70
0
 90
3
 10
368347.846013599
 20
4066293.00522561
 10
368341.33009265
 20
4066301.39463243
 10
368330.069178056
 20
4066312.53136097
  0
LWPOLYLINE
  5
20028
100
AcDbEntity
  8
residential
100
AcDbPolyline
 70
0
 90
3
 10
368167.094206029
 20
4066237.72167116
 10
368157.047306383
 20
4066240.69507185
 10
368118.535870542
 20
4066224.01159534
  0
LWPOLYLINE
  5
20029
100
AcDbEntity
  8
service
100
AcDbPolyline
 70
0
 90
2
 10
368289.204988845
 20
4066231.76771569
 10
368266.488355646
 20
4066238.49810626
  0
LWPOLYLINE
  5
2002A
100
AcDbEntity
  8
footway
100
AcDbPolyline
 70
0
 90
3
 10
368211.677859669
 20
4066236.94573278
 10
368218.352815858
 20
4066237.14247789
 10
368226.690368778
 20
4066237.42457489
  0
LWPOLYLINE
  5
2002B
100
AcDbEntity
  8
footway
100
AcDbPolyline
 70
0
 90
4
 10
368232.090377392
 20
4066253.42022162
 10
368236.407156352
 20
4066250.12462345
 10
368239.884011974
 20
4066247.38569763
 10
368266.488355646
 20
4066238.49810626
  0
LWPOLYLINE
  5
2002C
100
AcDbEntity
  8
tertiary
100
AcDbPolyline
 70
0
 90
4
 10
368205.839275839
 20
4066255.6667622
 10
368211.684170494
 20
4066250.10610476
 10
368216.020015881
 20
4066241.67251495
 10
368218.352815858
 20
4066237.14247789
  0
LWPOLYLINE
  5
2002D
100
AcDbEntity
  8
tertiary
100
AcDbPolyline
 70
0
 90
4
 10
368218.352815858
 20
4066237.14247789
 10
368219.317052902
 20
4066241.75486687
 10
368221.448258041
 20
4066251.96411115
 10
368222.629494783
 20
4066257.32771978
  0
LWPOLYLINE
  5
2002E
100
AcDbEntity
  8
footway
100
AcDbPolyline
 70
0
 90
8
 10
368247.62920232
 20
4066267.7727304
 10
368245.416986466
 20
4066259.83951462
 10
368243.422622349
 20
4066252.71298857
 10
368236.374056107
 20
4066254.35290598
 10
368232.090377392
 20
4066253.42022162
 10
368228.032620762
 20
4066250.91944945
 10
368226.213681308
 20
4066247.06369608
 10
368226.690368778
 20
4066237.42457489
  0
LWPOLYLINE
  5
2002F
100
AcDbEntity
  8
tertiary
100
AcDbPolyline
 70
0
 90
3
 10
368205.839275839
 20
4066255.6667622
 10
368215.477347853
 20
4066254.56393356
 10
368222.629494783
 20
4066257.32771978
  0
LWPOLYLINE
  5
20030
100
AcDbEntity
  8
tertiary
100
AcDbPolyline
 70
0
 90
3
 10
368222.629494783
 20
4066257.32771978
 10
368225.890816926
 20
4066259.72979626
 10
368227.923679201
 20
4066264.13707911
  0
LWPOLYLINE
  5
20031
100
AcDbEntity
  8
tertiary
100
AcDbPolyline
 70
0
 90
2
 10
368227.923679201
 20
4066264.13707911
 10
368230.045419336
 20
4066271.99400955
  0
LWPOLYLINE
  5
20032
100
AcDbEntity
  8
footway
100
AcDbPolyline
 70
0
 90
2
 10
368106.077831385
 20
4066060.79635144
 10
368108.83403134
 20
4066063.45030055
  0
LWPOLYLINE
  5
20033
100
AcDbEntity
  8
residential
100
AcDbPolyline
 70
0
 90
7
 10
368131.233467431
 20
4066296.7865205
 10
368129.304531753
 20
4066291.01278373
 10
368127.562907529
 20
4066285.80208156
 10
368143.950405469
 20
4066259.0287089
 10
368141.525113675
 20
4066254.66078441
 10
368122.520945817
 20
4066233.95920435
 10
368118.535870542
 20
4066224.01159534
  0
LWPOLYLINE
  5
20034
100
AcDbEntity
  8
primary
100
AcDbPolyline
 70
0
 90
2
 10
368131.233467431
 20
4066296.7865205
 10
368136.425067538
 20
4066294.04330196
  0
LWPOLYLINE
  5
20035
100
AcDbEntity
  8
primary
100
AcDbPolyline
 70
0
 90
6
 10
368052.074947476
 20
4066375.06180401
 10
368058.24594138
 20
4066362.28325826
 10
368062.256093901
 20
4066355.33044332
 10
368083.458162874
 20
4066330.34687446
 10
368102.553932696
 20
4066313.56289249
 10
368131.233467431
 20
4066296.7865205
  0
LWPOLYLINE
  5
20036
100
AcDbEntity
  8
service
100
AcDbPolyline
 70
0
 90
10
 10
368040.456357952
 20
4066323.63112939
 10
368040.569181557
 20
4066337.88842711
 10
368046.361175326
 20
4066343.38060716
 10
368050.730619509
 20
4066345.82100208
 10
368051.594774752
 20
4066347.99368443
 10
368049.830208489
 20
4066351.13903558
 10
368049.33478672
 20
4066354.91949942
 10
368050.532210564
 20
4066357.8526998
 10
368053.262633936
 20
4066359.41956688
 10
368058.24594138
 20
4066362.28325826
  0
LWPOLYLINE
  5
20037
100
AcDbEntity
  8
residential
100
AcDbPolyline
 70
0
 90
4
 10
368052.074947476
 20
4066375.06180401
 10
368079.563845467
 20
4066384.18071552
 10
368091.187641539
 20
4066383.85715358
 10
368090.795260146
 20
4066377.52708966
  0
LWPOLYLINE
  5
20038
100
AcDbEntity
  8
primary
100
AcDbPolyline
 70
0
 90
4
 10
368016.215837815
 20
4066444.55792151
 10
368033.298589485
 20
4066411.37087371
 10
368034.530088476
 20
4066408.98830832
 10
368052.074947476
 20
4066375.06180401
  0
LWPOLYLINE
  5
20039
100
AcDbEntity
  8
residential
100
AcDbPolyline
 70
0
 90
4
 10
368000
 20
4066437.48090788
 10
368005.050651069
 20
4066439.86997408
 10
368012.134541237
 20
4066442.84546918
 10
368016.215837815
 20
4066444.55792151
  0
LWPOLYLINE
  5
2003A
100
AcDbEntity
  8
residential
100
AcDbPolyline
 70
0
 90
6
 10
368109.849279422
 20
4066411.89874428
 10
368101.188965463
 20
4066419.63343843
 10
368098.46448025
 20
4066429.45150177
 10
368101.00422353
 20
4066453.98003792
 10
368099.562891197
 20
4066462.44672685
 10
368095.983734117
 20
4066470.12524903
  0
LWPOLYLINE
  5
2003B
100
AcDbEntity
  8
residential
100
AcDbPolyline
 70
0
 90
10
 10
368095.983734117
 20
4066470.12524903
 10
368095.553195831
 20
4066461.32124731
 10
368092.544490001
 20
4066452.71236589
 10
368084.45095366
 20
4066436.39216146
 10
368083.04678733
 20
4066430.47718031
 10
368083.821401897
 20
4066423.95156924
 10
368086.759590823
 20
4066418.72416633
 10
368092.315584898
 20
4066414.13327218
 10
368100.418822106
 20
4066413.13165635
 10
368109.849279422
 20
4066411.89874428
  0
LWPOLYLINE
  5
2003C
100
AcDbEntity
  8
tertiary
100
AcDbPolyline
 70
0
 90
5
 10
368152.401170144
 20
4066283.45501659
 10
368152.878477592
 20
4066279.07562843
 10
368160.492023062
 20
4066268.31668731
 10
368165.397051218
 20
4066265.52242295
 10
368205.839275839
 20
4066255.6667622
  0
LWPOLYLINE
  5
2003D
100
AcDbEntity
  8
primary
100
AcDbPolyline
 70
0
 90
2
 10
368152.401170144
 20
4066283.45501659
 10
368227.923679201
 20
4066264.13707911
  0
LWPOLYLINE
  5
2003E
100
AcDbEntity
  8
primary
100
AcDbPolyline
 70
0
 90
2
 10
368230.045419336
 20
4066271.99400955
 10
368154.456878726
 20
4066291.07992241
  0
LWPOLYLINE
  5
2003F
100
AcDbEntity
  8
tertiary
100
AcDbPolyline
 70
0
 90
6
 10
368230.045419336
 20
4066271.99400955
 10
368229.336036278
 20
4066276.96508296
 10
368225.864042467
 20
4066284.07596662
 10
368218.701878761
 20
4066289.93432697
 10
368180.4114966
 20
4066299.15755227
 10
368168.180032318
 20
4066302.36435436
  0
LWPOLYLINE
  5
20040
100
AcDbEntity
  8
tertiary
100
AcDbPolyline
 70
0
 90
2
 10
368154.456878726
 20
4066291.07992241
 10
368152.401170144
 20
4066283.45501659
  0
LWPOLYLINE
  5
20041
100
AcDbEntity
  8
primary
100
AcDbPolyline
 70
0
 90
2
 10
368136.425067538
 20
4066294.04330196
 10
368152.401170144
 20
4066283.45501659
  0
LWPOLYLINE
  5
20042
100
AcDbEntity
  8
primary
100
AcDbPolyline
 70
0
 90
2
 10
368154.456878726
 20
4066291.07992241
 10
368136.425067538
 20
4066294.04330196
  0
LWPOLYLINE
  5
20043
100
AcDbEntity
  8
tertiary
100
AcDbPolyline
 70
0
 90
3
 10
368168.180032318
 20
4066302.36435436
 10
368158.645972809
 20
4066296.8853984
 10
368154.456878726
 20
4066291.07992241
  0
LWPOLYLINE
  5
20044
100
AcDbEntity
  8
residential
100
AcDbPolyline
 70
0
 90
3
 10
368300.224548325
 20
4066307.60911881
 10
368318.825061193
 20
4066307.35597397
 10
368330.069178056
 20
4066312.53136097
  0
LWPOLYLINE
  5
20045
100
AcDbEntity
  8
residential
100
AcDbPolyline
 70
0
 90
14
 10
368109.849279422
 20
4066411.89874428
 10
368128.935811042
 20
4066398.0000522
 10
368132.577774792
 20
4066389.17763677
 10
368131.047219763
 20
4066380.85665254
 10
368113.085523625
 20
4066358.81853853
 10
368111.290527851
 20
4066353.04273965
 10
368111.936537405
 20
4066346.86310885
 10
368114.959243124
 20
4066341.90073125
 10
368124.905072961
 20
4066332.38188465
 10
368136.529553188
 20
4066324.56822401
 10
368155.833665476
 20
4066317.23538978
 10
368162.560166975
 20
4066313.24790564
 10
368166.515031932
 20
4066307.91608908
 10
368168.180032318
 20
4066302.36435436
  0
LWPOLYLINE
  5
20046
100
AcDbEntity
  8
service
100
AcDbPolyline
 70
0
 90
4
 10
368034.530088476
 20
4066408.98830832
 10
368048.660776337
 20
4066415.42817364
 10
368046.21606794
 20
4066443.37366851
 10
368062.82340849
 20
4066483.56427019
  0
LWPOLYLINE
  5
20047
100
AcDbEntity
  8
service
100
AcDbPolyline
 70
0
 90
2
 10
368081.548437557
 20
4066475.7741289
 10
368070.545306376
 20
4066449.74497428
  0
LWPOLYLINE
  5
20048
100
AcDbEntity
  8
footway
100
AcDbPolyline
 70
0
 90
3
 10
368035.536196127
 20
4066478.81434475
 10
368039.223556356
 20
4066480.46630733
 10
368042.851312627
 20
4066478.83461813
  0
LWPOLYLINE
  5
20049
100
AcDbEntity
  8
service
100
AcDbPolyline
 70
0
 90
2
 10
368042.851312627
 20
4066478.83461813
 10
368056.632756639
 20
4066485.80141831
  0
LWPOLYLINE
  5
2004A
100
AcDbEntity
  8
service
100
AcDbPolyline
 70
0
 90
6
 10
368081.548437557
 20
4066475.7741289
 10
368062.82340849
 20
4066483.56427019
 10
368056.632756639
 20
4066485.80141831
 10
368048.455861986
 20
4066495.33744747
 10
368036.525920939
 20
4066498.38444873
 10
368027.126910294
 20
4066497.59739219
  0
LWPOLYLINE
  5
2004B
100
AcDbEntity
  8
footway
100
AcDbPolyline
 70
0
 90
2
 10
368035.536196127
 20
4066478.81434475
 10
368027.126910294
 20
4066497.59739219
  0
LWPOLYLINE
  5
2004C
100
AcDbEntity
  8
footway
100
AcDbPolyline
 70
0
 90
5
 10
368000
 20
4066493.15293369
 10
368009.238074162
 20
4066497.06344685
 10
368015.583313602
 20
4066497.32059734
 10
368017.926009089
 20
4066494.02205859
 10
368027.126910294
 20
4066497.59739219
  0
LWPOLYLINE
  5
2004D
100
AcDbEntity
  8
primary
100
AcDbPolyline
 70
0
 90
4
 10
368000
 20
4066476.93426799
 10
368004.173317448
 20
4066468.66792121
 10
368005.506642118
 20
4066465.93978646
 10
368016.215837815
 20
4066444.55792151
  0
LWPOLYLINE
  5
2004E
100
AcDbEntity
  8
residential
100
AcDbPolyline
 70
0
 90
8
 10
368110.972657068
 20
4066612.12935232
 10
368090.995232504
 20
4066610.50671168
 10
368086.671120077
 20
4066607.52187216
 10
368083.901274266
 20
4066602.81528749
 10
368078.58545659
 20
4066529.76006648
 10
368081.739373807
 20
4066502.62478272
 10
368084.107497853
 20
4066492.86769114
 10
368095.983734117
 20
4066470.12524903
  0
LWPOLYLINE
  5
2004F
100
AcDbEntity
  8
residential
100
AcDbPolyline
 70
0
 90
2
 10
368037.297656688
 20
4066605.68710261
 10
368064.009950767
 20
4066609.66913063
  0
LWPOLYLINE
  5
20050
100
AcDbEntity
  8
residential
100
AcDbPolyline
 70
0
 90
13
 10
368330.069178056
 20
4066312.53136097
 10
368326.482543503
 20
4066318.00168259
 10
368324.822958432
 20
4066323.33136874
 10
368324.881003949
 20
4066331.74163126
 10
368327.264932761
 20
4066338.65134147
 10
368331.54305487
 20
4066343.86741053
 10
368338.773771416
 20
4066348.26126688
 10
368352.942511907
 20
4066353.7023565
 10
368367.181891743
 20
4066356.19070974
 10
368384.086839053
 20
4066354.87634394
 10
368397.336363159
 20
4066352.24229809
 10
368408.215367893
 20
4066352.85164103
 10
368421.406205739
 20
4066359.17341739
  0
LWPOLYLINE
  5
20051
100
AcDbEntity
  8
tertiary
100
AcDbPolyline
 70
0
 90
8
 10
368421.406205739
 20
4066359.17341739
 10
368411.594047522
 20
4066370.43200192
 10
368390.192170804
 20
4066391.19002755
 10
368365.912645834
 20
4066411.24894133
 10
368359.35354869
 20
4066413.3472815
 10
368353.970195309
 20
4066413.49673352
 10
368318.964926707
 20
4066413.3033278
 10
368310.613520206
 20
4066416.74979057
  0
LWPOLYLINE
  5
20052
100
AcDbEntity
  8
residential
100
AcDbPolyline
 70
0
 90
23
 10
368310.613520206
 20
4066416.74979057
 10
368328.311372414
 20
4066448.95676353
 10
368340.778204905
 20
4066456.98732749
 10
368349.413281054
 20
4066461.52601505
 10
368357.254522854
 20
4066467.87456668
 10
368360.838841492
 20
4066475.02102542
 10
368360.933947926
 20
4066499.76478546
 10
368363.195555781
 20
4066504.53476025
 10
368366.831773226
 20
4066506.9311145
 10
368372.315922686
 20
4066508.11169802
 10
368386.118494099
 20
4066507.18907018
 10
368389.285584137
 20
4066507.53979947
 10
368392.316073178
 20
4066508.88022184
 10
368407.354913177
 20
4066520.38888672
 10
368412.150645249
 20
4066521.52460665
 10
368417.040761453
 20
4066519.50746787
 10
368420.341231588
 20
4066514.59641012
 10
368423.107178384
 20
4066498.16430477
 10
368428.383514217
 20
4066482.93638438
 10
368449.839553212
 20
4066447.13074791
 10
368456.42854813
 20
4066441.17043248
 10
368487.603767703
 20
4066423.46915218
 10
368499.837432224
 20
4066419.83000612
  0
LWPOLYLINE
  5
20053
100
AcDbEntity
  8
tertiary
100
AcDbPolyline
 70
0
 90
22
 10
368310.613520206
 20
4066416.74979057
 10
368304.109714103
 20
4066421.27745919
 10
368298.329046981
 20
4066429.844224
 10
368297.236530292
 20
4066437.19584698
 10
368297.177591836
 20
4066444.38729694
 10
368300.773935771
 20
4066463.32914401
 10
368310.759893376
 20
4066501.0699566
 10
368313.760214233
 20
4066525.96872016
 10
368317.404013227
 20
4066543.35633051
 10
368320.330323132
 20
4066557.07094755
 10
368323.692594757
 20
4066566.61765842
 10
368327.683651959
 20
4066570.01831446
 10
368333.355187341
 20
4066572.35002384
 10
368343.12812013
 20
4066572.48805694
 10
368352.139464662
 20
4066573.04839733
 10
368356.084297311
 20
4066574.60775622
 10
368359.461713811
 20
4066577.01918722
 10
368369.515858335
 20
4066587.8832503
 10
368378.48853326
 20
4066594.63606771
 10
368389.440243867
 20
4066598.82842854
 10
368400.915840537
 20
4066601.08194704
 10
368406.528978679
 20
4066603.10389968
  0
LWPOLYLINE
  5
20054
100
AcDbEntity
  8
tertiary
100
AcDbPolyline
 70
0
 90
4
 10
368481.068866915
 20
4066560.12326349
 10
368470.84795608
 20
4066570.34500529
 10
368454.455690326
 20
4066585.79938052
 10
368423.138463684
 20
4066605.25624844
  0
LWPOLYLINE
  5
20055
100
AcDbEntity
  8
tertiary
100
AcDbPolyline
 70
0
 90
4
 10
368406.528978679
 20
4066603.10389968
 10
368411.613009287
 20
4066603.82460977
 10
368418.684082517
 20
4066604.82544832
 10
368423.138463684
 20
4066605.25624844
  0
LWPOLYLINE
  5
20056
100
AcDbEntity
  8
tertiary
100
AcDbPolyline
 70
0
 90
4
 10
368409.699919969
 20
4066617.63591875
 10
368410.026577928
 20
4066609.26412131
 10
368409.751192719
 20
4066608.78011268
 10
368406.528978679
 20
4066603.10389968
  0
LWPOLYLINE
  5
20057
100
AcDbEntity
  8
tertiary
100
AcDbPolyline
 70
0
 90
2
 10
368423.138463684
 20
4066605.25624844
 10
368409.699919969
 20
4066617.63591875
  0
LWPOLYLINE
  5
20058
100
AcDbEntity
  8
residential
100
AcDbPolyline
 70
0
 90
6
 10
368409.699919969
 20
4066617.63591875
 10
368381.976633255
 20
4066647.75687357
 10
368376.108156169
 20
4066658.1558688
 10
368370.869681616
 20
4066672.92829433
 10
368349.496300896
 20
4066704.76035421
 10
368345.786332603
 20
4066714.97078976
  0
LWPOLYLINE
  5
20059
100
AcDbEntity
  8
residential
100
AcDbPolyline
 70
0
 90
9
 10
368335.712402434
 20
4066630.89223869
 10
368339.787390719
 20
4066632.20546171
 10
368343.036879288
 20
4066634.43021465
 10
368345.932477931
 20
4066638.61340439
 10
368347.106888217
 20
4066644.12138769
 10
368345.04007143
 20
4066657.80192555
 10
368343.680877867
 20
4066671.61582383
 10
368344.998609873
 20
4066703.25389904
 10
368345.786332603
 20
4066714.97078976
  0
LWPOLYLINE
  5
2005A
100
AcDbEntity
  8
footway
100
AcDbPolyline
 70
0
 90
8
 10
368086.671120077
 20
4066607.52187216
 10
368079.882591192
 20
4066607.47124899
 10
368069.666676776
 20
4066606.98526367
 10
368069.531598967
 20
4066609.22884712
 10
368076.28714891
 20
4066609.45751532
 10
368076.193262959
 20
4066612.05555208
 10
368068.400054525
 20
4066611.72083216
 10
368064.009950767
 20
4066609.66913063
  0
LWPOLYLINE
  5
2005B
100
AcDbEntity
  8
residential
100
AcDbPolyline
 70
0
 90
2
 10
368000
 20
4066598.93647676
 10
368037.297656688
 20
4066605.68710261
  0
LWPOLYLINE
  5
2005C
100
AcDbEntity
  8
residential
100
AcDbPolyline
 70
0
 90
2
 10
368109.666329508
 20
4066636.29554942
 10
368110.972657068
 20
4066612.12935232
  0
LWPOLYLINE
  5
2005D
100
AcDbEntity
  8
residential
100
AcDbPolyline
 70
0
 90
3
 10
368037.297656688
 20
4066605.68710261
 10
368036.386689605
 20
4066613.79053405
 10
368031.595930798
 20
4066647.12078226
  0
LWPOLYLINE
  5
2005E
100
AcDbEntity
  8
residential
100
AcDbPolyline
 70
0
 90
2
 10
368109.666329508
 20
4066636.29554942
 10
368082.270541283
 20
4066632.57914801
  0
LWPOLYLINE
  5
2005F
100
AcDbEntity
  8
residential
100
AcDbPolyline
 70
0
 90
2
 10
368031.595930798
 20
4066647.12078226
 10
368000
 20
4066642.30697315
  0
LWPOLYLINE
  5
20060
100
AcDbEntity
  8
residential
100
AcDbPolyline
 70
0
 90
2
 10
368108.839567065
 20
4066651.59931987
 10
368109.666329508
 20
4066636.29554942
  0
LWPOLYLINE
  5
20061
100
AcDbEntity
  8
residential
100
AcDbPolyline
 70
0
 90
3
 10
368031.595930798
 20
4066647.12078226
 10
368025.554530439
 20
4066706.46952175
 10
368025.016116044
 20
4066712.66969886
  0
LWPOLYLINE
  5
20062
100
AcDbEntity
  8
service
100
AcDbPolyline
 70
0
 90
4
 10
368112.59204938
 20
4066704.9601374
 10
368114.252381625
 20
4066688.11218784
 10
368110.082269788
 20
4066680.05384842
 10
368103.888250145
 20
4066680.32693464
  0
LWPOLYLINE
  5
20063
100
AcDbEntity
  8
residential
100
AcDbPolyline
 70
0
 90
4
 10
368129.169741783
 20
4066702.74036833
 10
368112.59204938
 20
4066704.9601374
 10
368086.370795491
 20
4066708.47165125
 10
368081.118620095
 20
4066712.48085275
  0
LWPOLYLINE
  5
20064
100
AcDbEntity
  8
service
100
AcDbPolyline
 70
0
 90
4
 10
368931.024640821
 20
4066016.93288986
 10
368934.389913728
 20
4066010.3898806
 10
368938.92933498
 20
4066002.36414566
 10
368940.265034504
 20
4066000
  0
LWPOLYLINE
  5
20065
100
AcDbEntity
  8
unknown
100
AcDbPolyline
 70
0
 90
7
 10
368966.011749846
 20
4066000
 10
368956.018932875
 20
4066005.47560629
 10
368952.442102192
 20
4066006.37374373
 10
368948.727336692
 20
4066006.43066441
 10
368945.001521397
 20
4066005.76648534
 10
368942.950924034
 20
4066004.84361124
 10
368938.92933498
 20
4066002.36414566
  0
LWPOLYLINE
  5
20066
100
AcDbEntity
  8
primary
100
AcDbPolyline
 70
0
 90
2
 10
368855.970781551
 20
4066002.38191656
 10
368857.482839269
 20
4066000
  0
LWPOLYLINE
  5
20067
100
AcDbEntity
  8
primary
100
AcDbPolyline
 70
0
 90
2
 10
368857.052328229
 20
4066017.57860235
 10
368878.648913778
 20
4066000
  0
LWPOLYLINE
  5
20068
100
AcDbEntity
  8
primary
100
AcDbPolyline
 70
0
 90
2
 10
368890.727764149
 20
4066000
 10
368861.739416546
 20
4066023.26580425
  0
LWPOLYLINE
  5
20069
100
AcDbEntity
  8
primary
100
AcDbPolyline
 70
0
 90
3
 10
368906.778024388
 20
4066000
 10
368904.156872481
 20
4066005.80435149
 10
368896.631641333
 20
4066014.2420595
  0
LWPOLYLINE
  5
2006A
100
AcDbEntity
  8
residential
100
AcDbPolyline
 70
0
 90
2
 10
368667.695682952
 20
4066004.64957022
 10
368668.537670324
 20
4066000
  0
LWPOLYLINE
  5
2006B
100
AcDbEntity
  8
primary
100
AcDbPolyline
 70
0
 90
2
 10
368855.970781551
 20
4066002.38191656
 10
368853.587931112
 20
4066000
  0
LWPOLYLINE
  5
2006C
100
AcDbEntity
  8
primary
100
AcDbPolyline
 70
0
 90
2
 10
368855.222313392
 20
4066008.90702553
 10
368855.970781551
 20
4066002.38191656
  0
LWPOLYLINE
  5
2006D
100
AcDbEntity
  8
primary
100
AcDbPolyline
 70
0
 90
3
 10
368857.052328229
 20
4066017.57860235
 10
368855.009109434
 20
4066010.73011705
 10
368855.222313392
 20
4066008.90702553
  0
LWPOLYLINE
  5
2006E
100
AcDbEntity
  8
residential
100
AcDbPolyline
 70
0
 90
3
 10
368691.884486172
 20
4066009.39364424
 10
368699.259541144
 20
4066010.96708349
 10
368746.143487688
 20
4066020.91115979
  0
LWPOLYLINE
  5
2006F
100
AcDbEntity
  8
service
100
AcDbPolyline
 70
0
 90
2
 10
368746.143487688
 20
4066020.91115979
 10
368747.750367983
 20
4066017.94593142
  0
LWPOLYLINE
  5
20070
100
AcDbEntity
  8
primary
100
AcDbPolyline
 70
0
 90
2
 10
368861.739416546
 20
4066023.26580425
 10
368857.052328229
 20
4066017.57860235
  0
LWPOLYLINE
  5
20071
100
AcDbEntity
  8
residential
100
AcDbPolyline
 70
0
 90
2
 10
368787.287370677
 20
4066062.50194418
 10
368855.222313392
 20
4066008.90702553
  0
LWPOLYLINE
  5
20072
100
AcDbEntity
  8
primary
100
AcDbPolyline
 70
0
 90
4
 10
368861.739416546
 20
4066023.26580425
 10
368834.247924449
 20
4066046.60161206
 10
368827.731749963
 20
4066052.10553608
 10
368816.436619525
 20
4066061.65530728
  0
LWPOLYLINE
  5
20073
100
AcDbEntity
  8
residential
100
AcDbPolyline
 70
0
 90
5
 10
368908.25997921
 20
4066000
 10
368912.907231281
 20
4066007.36798883
 10
368920.273378413
 20
4066011.86012589
 10
368931.024640821
 20
4066016.93288986
 10
368950.376337482
 20
4066027.77720189
  0
LWPOLYLINE
  5
20074
100
AcDbEntity
  8
footway
100
AcDbPolyline
 70
0
 90
4
 10
368915.400601993
 20
4066020.27935772
 10
368917.401725352
 20
4066016.80877985
 10
368918.637438919
 20
4066014.68151046
 10
368920.273378413
 20
4066011.86012589
  0
LWPOLYLINE
  5
20075
100
AcDbEntity
  8
primary
100
AcDbPolyline
 70
0
 90
6
 10
368896.631641333
 20
4066014.2420595
 10
368888.333628132
 20
4066019.46254736
 10
368883.225573998
 20
4066022.43703636
 10
368878.418241953
 20
4066025.218278
 10
368871.006414851
 20
4066025.32081805
 10
368861.739416546
 20
4066023.26580425
  0
LWPOLYLINE
  5
20076
100
AcDbEntity
  8
residential
100
AcDbPolyline
 70
0
 90
7
 10
368950.376337482
 20
4066027.77720189
 10
368934.604871794
 20
4066027.33090051
 10
368925.420042965
 20
4066025.97363712
 10
368915.400601993
 20
4066020.27935772
 10
368907.897787964
 20
4066016.77690602
 10
368900.26042113
 20
4066014.98538028
 10
368896.631641333
 20
4066014.2420595
  0
LWPOLYLINE
  5
20077
100
AcDbEntity
  8
residential
100
AcDbPolyline
 70
0
 90
3
 10
368950.376337482
 20
4066027.77720189
 10
368974.951462197
 20
4066035.60096573
 10
369000
 20
4066043.56532453
  0
LWPOLYLINE
  5
20078
100
AcDbEntity
  8
service
100
AcDbPolyline
 70
0
 90
21
 10
368883.225573998
 20
4066022.43703636
 10
368882.458292414
 20
4066029.48396514
 10
368882.098039726
 20
4066032.78514152
 10
368881.683355991
 20
4066039.52706003
 10
368883.632828755
 20
4066046.08847963
 10
368888.361979853
 20
4066052.77373293
 10
368900.641427568
 20
4066070.14011807
 10
368906.378081068
 20
4066074.37980836
 10
368915.329758707
 20
4066075.09702736
 10
368920.274998739
 20
4066075.48728362
 10
368923.457274091
 20
4066075.07232674
 10
368932.986072378
 20
4066073.8166431
 10
368962.326559093
 20
4066079.62545458
 10
368968.634915953
 20
4066076.87674461
 10
368969.279037392
 20
4066069.36566099
 10
368969.853671265
 20
4066062.56581636
 10
368968.42748372
 20
4066054.01009426
 10
368967.955857096
 20
4066051.20991273
 10
368961.383696456
 20
4066043.15470058
 10
368938.828076313
 20
4066031.89341099
 10
368925.420042965
 20
4066025.97363712
  0
LWPOLYLINE
  5
20079
100
AcDbEntity
  8
service
100
AcDbPolyline
 70
0
 90
8
 10
368932.986072378
 20
4066073.8166431
 10
368930.577223779
 20
4066068.74918151
 10
368915.517031859
 20
4066037.19969623
 10
368912.568882958
 20
4066034.82585181
 10
368908.820533792
 20
4066035.60457595
 10
368899.915146143
 20
4066040.82326664
 10
368913.036305163
 20
4066069.98341568
 10
368915.329758707
 20
4066075.09702736
  0
LWPOLYLINE
  5
2007A
100
AcDbEntity
  8
service
100
AcDbPolyline
 70
0
 90
7
 10
368875.048088712
 20
4066078.04479115
 10
368870.856841953
 20
4066066.24691811
 10
368868.628164832
 20
4066063.0298216
 10
368866.25134087
 20
4066061.80126659
 10
368863.17273215
 20
4066062.56974236
 10
368846.665985585
 20
4066075.32859296
 10
368844.78557547
 20
4066076.76668266
  0
LWPOLYLINE
  5
2007B
100
AcDbEntity
  8
service
100
AcDbPolyline
 70
0
 90
6
 10
368888.361979853
 20
4066052.77373293
 10
368887.978923574
 20
4066063.9093709
 10
368887.484718682
 20
4066073.03825087
 10
368875.048088712
 20
4066078.04479115
 10
368854.560085818
 20
4066086.29292004
 10
368851.123707547
 20
4066087.61061426
  0
LWPOLYLINE
  5
2007C
100
AcDbEntity
  8
footway
100
AcDbPolyline
 70
0
 90
6
 10
368968.42748372
 20
4066054.01009426
 10
368975.531228456
 20
4066055.95410811
 10
368976.015640229
 20
4066056.09094098
 10
368993.923269233
 20
4066075.87903166
 10
368999.40154677
 20
4066077.2487542
 10
369000
 20
4066077.3037166
  0
LWPOLYLINE
  5
2007D
100
AcDbEntity
  8
residential
100
AcDbPolyline
 70
0
 90
2
 10
368484.817162541
 20
4066000.06951909
 10
368485.356085338
 20
4066000
  0
LWPOLYLINE
  5
2007E
100
AcDbEntity
  8
residential
100
AcDbPolyline
 70
0
 90
3
 10
368639.470431749
 20
4066000
 10
368641.646668408
 20
4066000.33360764
 10
368667.695682952
 20
4066004.64957022
  0
LWPOLYLINE
  5
2007F
100
AcDbEntity
  8
footway
100
AcDbPolyline
 70
0
 90
4
 10
368592.728932235
 20
4066000
 10
368592.623928068
 20
4066001.18655205
 10
368592.04637506
 20
4066006.03349631
 10
368586.469839383
 20
4066009.90308386
  0
LWPOLYLINE
  5
20080
100
AcDbEntity
  8
residential
100
AcDbPolyline
 70
0
 90
3
 10
368691.884486172
 20
4066009.39364424
 10
368679.155992124
 20
4066007.02578677
 10
368667.695682952
 20
4066004.64957022
  0
LWPOLYLINE
  5
20081
100
AcDbEntity
  8
footway
100
AcDbPolyline
 70
0
 90
11
 10
368482.396959684
 20
4066022.74359111
 10
368490.889747635
 20
4066023.23440025
 10
368590.908465942
 20
4066029.05400785
 10
368590.274279327
 20
4066018.5886636
 10
368586.469839383
 20
4066009.90308386
 10
368585.914452303
 20
4066008.63552104
 10
368573.205468561
 20
4066003.47120385
 10
368548.645105929
 20
4066003.61562982
 10
368503.559001687
 20
4066007.80410903
 10
368494.247206801
 20
4066010.97662743
 10
368491.10788736
 20
4066019.41385083
  0
LWPOLYLINE
  5
20082
100
AcDbEntity
  8
service
100
AcDbPolyline
 70
0
 90
4
 10
368480.928365969
 20
4066031.21060987
 10
368491.869251371
 20
4066031.7525455
 10
368498.664872684
 20
4066032.23616923
 10
368582.339053908
 20
4066038.10726109
  0
LWPOLYLINE
  5
20083
100
AcDbEntity
  8
residential
100
AcDbPolyline
 70
0
 90
4
 10
368707.503339059
 20
4066060.98554613
 10
368687.69883976
 20
4066049.17223395
 10
368690.368164483
 20
4066018.83784149
 10
368691.884486172
 20
4066009.39364424
  0
LWPOLYLINE
  5
20084
100
AcDbEntity
  8
service
100
AcDbPolyline
 70
0
 90
3
 10
368632.040459299
 20
4066062.84342712
 10
368666.752489591
 20
4066041.52658639
 10
368687.69883976
 20
4066049.17223395
  0
LWPOLYLINE
  5
20085
100
AcDbEntity
  8
service
100
AcDbPolyline
 70
0
 90
4
 10
368498.664872684
 20
4066032.23616923
 10
368497.399762414
 20
4066067.29836116
 10
368526.182755497
 20
4066069.35255113
 10
368582.77382003
 20
4066073.37633194
  0
LWPOLYLINE
  5
20086
100
AcDbEntity
  8
residential
100
AcDbPolyline
 70
0
 90
7
 10
368707.503339059
 20
4066060.98554613
 10
368698.048418874
 20
4066072.87078174
 10
368691.796465751
 20
4066076.96150367
 10
368683.200985696
 20
4066082.57514308
 10
368674.094553951
 20
4066087.48646231
 10
368647.765524981
 20
4066100.39654388
 10
368631.62207035
 20
4066108.28998388
  0
LWPOLYLINE
  5
20087
100
AcDbEntity
  8
steps
100
AcDbPolyline
 70
0
 90
3
 10
368644.200402071
 20
4066091.58520444
 10
368641.343846349
 20
4066085.29298292
 10
368637.142204485
 20
4066087.37707979
  0
LWPOLYLINE
  5
20088
100
AcDbEntity
  8
primary
100
AcDbPolyline
 70
0
 90
4
 10
368789.429066574
 20
4066072.85539311
 10
368799.051262305
 20
4066065.4617726
 10
368811.127756147
 20
4066055.61148321
 10
368857.052328229
 20
4066017.57860235
  0
LWPOLYLINE
  5
20089
100
AcDbEntity
  8
residential
100
AcDbPolyline
 70
0
 90
3
 10
368761.337965003
 20
4066072.80926392
 10
368719.476638685
 20
4066063.62025364
 10
368707.503339059
 20
4066060.98554613
  0
LWPOLYLINE
  5
2008A
100
AcDbEntity
  8
residential
100
AcDbPolyline
 70
0
 90
3
 10
368761.337965003
 20
4066072.80926392
 10
368777.875459306
 20
4066066.71875773
 10
368787.287370677
 20
4066062.50194418
  0
LWPOLYLINE
  5
2008B
100
AcDbEntity
  8
residential
100
AcDbPolyline
 70
0
 90
2
 10
368789.429066574
 20
4066072.85539311
 10
368787.287370677
 20
4066062.50194418
  0
LWPOLYLINE
  5
2008C
100
AcDbEntity
  8
service
100
AcDbPolyline
 70
0
 90
4
 10
368827.731749963
 20
4066052.10553608
 10
368829.022652904
 20
4066054.1607787
 10
368844.78557547
 20
4066076.76668266
 10
368851.123707547
 20
4066087.61061426
  0
LWPOLYLINE
  5
2008D
100
AcDbEntity
  8
primary
100
AcDbPolyline
 70
0
 90
3
 10
368816.436619525
 20
4066061.65530728
 10
368804.019780614
 20
4066071.44423147
 10
368794.29332535
 20
4066079.02808626
  0
LWPOLYLINE
  5
2008E
100
AcDbEntity
  8
tertiary
100
AcDbPolyline
 70
0
 90
4
 10
368816.436619525
 20
4066061.65530728
 10
368816.90769608
 20
4066063.83408815
 10
368818.603359424
 20
4066070.73228261
 10
368824.164945176
 20
4066088.01296897
  0
LWPOLYLINE
  5
2008F
100
AcDbEntity
  8
residential
100
AcDbPolyline
 70
0
 90
3
 10
368781.060429909
 20
4066079.28659077
 10
368768.142473872
 20
4066074.45809389
 10
368761.337965003
 20
4066072.80926392
  0
LWPOLYLINE
  5
20090
100
AcDbEntity
  8
primary
100
AcDbPolyline
 70
0
 90
2
 10
368781.060429909
 20
4066079.28659077
 10
368789.429066574
 20
4066072.85539311
  0
LWPOLYLINE
  5
20091
100
AcDbEntity
  8
residential
100
AcDbPolyline
 70
0
 90
2
 10
368794.29332535
 20
4066079.02808626
 10
368781.060429909
 20
4066079.28659077
  0
LWPOLYLINE
  5
20092
100
AcDbEntity
  8
footway
100
AcDbPolyline
 70
0
 90
3
 10
368719.476638685
 20
4066063.62025364
 10
368716.089603292
 20
4066069.89737428
 10
368735.85377922
 20
4066096.54736834
  0
LWPOLYLINE
  5
20093
100
AcDbEntity
  8
tertiary
100
AcDbPolyline
 70
0
 90
4
 10
368805.726812523
 20
4066094.22131409
 10
368800.506735514
 20
4066086.97771482
 10
368795.713241988
 20
4066080.75954689
 10
368794.29332535
 20
4066079.02808626
  0
LWPOLYLINE
  5
20094
100
AcDbEntity
  8
footway
100
AcDbPolyline
 70
0
 90
3
 10
368691.796465751
 20
4066076.96150367
 10
368705.730610433
 20
4066096.19971951
 10
368711.881001971
 20
4066104.69398226
  0
LWPOLYLINE
  5
20095
100
AcDbEntity
  8
tertiary
100
AcDbPolyline
 70
0
 90
5
 10
368824.164945176
 20
4066088.01296897
 10
368821.454181456
 20
4066091.21704403
 10
368815.536399707
 20
4066093.8045232
 10
368808.413191548
 20
4066094.66835011
 10
368805.726812523
 20
4066094.22131409
  0
LWPOLYLINE
  5
20096
100
AcDbEntity
  8
tertiary
100
AcDbPolyline
 70
0
 90
3
 10
368824.164945176
 20
4066088.01296897
 10
368826.620461783
 20
4066093.78986218
 10
368830.045077666
 20
4066103.93500218
  0
LWPOLYLINE
  5
20097
100
AcDbEntity
  8
tertiary
100
AcDbPolyline
 70
0
 90
4
 10
368830.045077666
 20
4066103.93500218
 10
368832.925710646
 20
4066107.73020334
 10
368836.351892748
 20
4066110.40739045
 10
368848.781005817
 20
4066115.3988338
  0
LWPOLYLINE
  5
20098
100
AcDbEntity
  8
residential
100
AcDbPolyline
 70
0
 90
8
 10
368638.579606955
 20
4066147.23166734
 10
368646.288912574
 20
4066144.40571205
 10
368671.831129241
 20
4066134.35949921
 10
368700.979237776
 20
4066118.90949772
 10
368716.828978201
 20
4066110.4991641
 10
368735.85377922
 20
4066096.54736834
 10
368752.653056067
 20
4066084.23876139
 10
368761.337965003
 20
4066072.80926392
  0
LWPOLYLINE
  5
20099
100
AcDbEntity
  8
tertiary
100
AcDbPolyline
 70
0
 90
2
 10
368830.045077666
 20
4066103.93500218
 10
368836.386496454
 20
4066125.4758797
  0
LWPOLYLINE
  5
2009A
100
AcDbEntity
  8
footway
100
AcDbPolyline
 70
0
 90
2
 10
368699.215431449
 20
4066115.14157806
 10
368700.979237776
 20
4066118.90949772
  0
LWPOLYLINE
  5
2009B
100
AcDbEntity
  8
tertiary
100
AcDbPolyline
 70
0
 90
4
 10
368848.781005817
 20
4066115.3988338
 10
368840.689079483
 20
4066116.57709507
 10
368837.3120838
 20
4066119.43629553
 10
368836.386496454
 20
4066125.4758797
  0
LWPOLYLINE
  5
2009C
100
AcDbEntity
  8
footway
100
AcDbPolyline
 70
0
 90
4
 10
368683.200985696
 20
4066082.57514308
 10
368688.312117465
 20
4066092.60556631
 10
368693.776798774
 20
4066104.13968639
 10
368696.259773581
 20
4066109.37239646
  0
LWPOLYLINE
  5
2009D
100
AcDbEntity
  8
footway
100
AcDbPolyline
 70
0
 90
2
 10
368647.765524981
 20
4066100.39654388
 10
368644.200402071
 20
4066091.58520444
  0
LWPOLYLINE
  5
2009E
100
AcDbEntity
  8
footway
100
AcDbPolyline
 70
0
 90
2
 10
368693.776798774
 20
4066104.13968639
 10
368705.730610433
 20
4066096.19971951
  0
LWPOLYLINE
  5
2009F
100
AcDbEntity
  8
steps
100
AcDbPolyline
 70
0
 90
2
 10
368696.259773581
 20
4066109.37239646
 10
368699.215431449
 20
4066115.14157806
  0
LWPOLYLINE
  5
200A0
100
AcDbEntity
  8
service
100
AcDbPolyline
 70
0
 90
4
 10
368631.62207035
 20
4066108.28998388
 10
368630.99249744
 20
4066108.58816331
 10
368626.470596048
 20
4066110.75486095
 10
368625.412576843
 20
4066122.69984216
  0
LWPOLYLINE
  5
200A1
100
AcDbEntity
  8
footway
100
AcDbPolyline
 70
0
 90
3
 10
368630.99249744
 20
4066108.58816331
 10
368632.279896204
 20
4066111.57553721
 10
368639.042364036
 20
4066127.35074333
  0
LWPOLYLINE
  5
200A2
100
AcDbEntity
  8
steps
100
AcDbPolyline
 70
0
 90
2
 10
368639.042364036
 20
4066127.35074333
 10
368642.674486099
 20
4066135.87254288
  0
LWPOLYLINE
  5
200A3
100
AcDbEntity
  8
footway
100
AcDbPolyline
 70
0
 90
2
 10
368642.674486099
 20
4066135.87254288
 10
368646.288912574
 20
4066144.40571205
  0
LWPOLYLINE
  5
200A4
100
AcDbEntity
  8
primary
100
AcDbPolyline
 70
0
 90
13
 10
368480.765600222
 20
4066201.25587602
 10
368495.554686381
 20
4066197.07809744
 10
368582.032475157
 20
4066175.67520831
 10
368587.807131903
 20
4066174.24379666
 10
368600.191227382
 20
4066171.06855381
 10
368611.685613079
 20
4066168.11783145
 10
368614.29846366
 20
4066167.26764597
 10
368631.103838971
 20
4066161.77193817
 10
368668.08445241
 20
4066148.62054118
 10
368701.641147775
 20
4066131.77126146
 10
368739.384107787
 20
4066110.66339589
 10
368770.827318706
 20
4066087.61061511
 10
368781.060429909
 20
4066079.28659077
  0
LWPOLYLINE
  5
200A5
100
AcDbEntity
  8
primary
100
AcDbPolyline
 70
0
 90
11
 10
368794.29332535
 20
4066079.02808626
 10
368775.331255942
 20
4066094.16610715
 10
368743.30507978
 20
4066117.06137196
 10
368708.044470271
 20
4066137.54299842
 10
368671.23540453
 20
4066155.47417068
 10
368633.631655932
 20
4066169.92232012
 10
368610.609589179
 20
4066177.14471554
 10
368587.861607265
 20
4066183.0202871
 10
368498.380941527
 20
4066204.87986441
 10
368468.496815198
 20
4066213.08479374
 10
368460.766067968
 20
4066215.09010323
  0
LWPOLYLINE
  5
200A6
100
AcDbEntity
  8
service
100
AcDbPolyline
 70
0
 90
11
 10
368962.326559093
 20
4066079.62545458
 10
368987.025797837
 20
4066085.64971691
 10
368990.978678079
 20
4066090.06104162
 10
368992.427394935
 20
4066097.1738804
 10
368992.358444835
 20
4066108.41566189
 10
368988.97009165
 20
4066117.53338412
 10
368981.72951166
 20
4066120.06333574
 10
368925.688321602
 20
4066106.41896355
 10
368920.81796035
 20
4066101.58896721
 10
368918.95238181
 20
4066094.67116727
 10
368923.457274091
 20
4066075.07232674
  0
LWPOLYLINE
  5
200A7
100
AcDbEntity
  8
tertiary
100
AcDbPolyline
 70
0
 90
6
 10
368907.332245908
 20
4066162.84848353
 10
368900.043691847
 20
4066158.16653223
 10
368895.482560991
 20
4066153.69799397
 10
368876.029260122
 20
4066128.64078231
 10
368862.508974984
 20
4066118.30643323
 10
368848.781005817
 20
4066115.3988338
  0
LWPOLYLINE
  5
200A8
100
AcDbEntity
  8
residential
100
AcDbPolyline
 70
0
 90
6
 10
369000
 20
4066139.131043
 10
368995.032070974
 20
4066138.93438869
 10
368979.057369621
 20
4066140.36643128
 10
368966.391808155
 20
4066141.50367937
 10
368944.567871804
 20
4066146.49860526
 10
368932.545060504
 20
4066151.11034765
  0
LWPOLYLINE
  5
200A9
100
AcDbEntity
  8
residential
100
AcDbPolyline
 70
0
 90
3
 10
368932.545060504
 20
4066151.11034765
 10
368921.106166665
 20
4066156.52320052
 10
368907.332245908
 20
4066162.84848353
  0
LWPOLYLINE
  5
200AA
100
AcDbEntity
  8
footway
100
AcDbPolyline
 70
0
 90
7
 10
368979.057369621
 20
4066140.36643128
 10
368979.375211872
 20
4066144.78905445
 10
368980.516967739
 20
4066148.18927622
 10
368981.990908336
 20
4066151.11835723
 10
368986.091564694
 20
4066155.84921275
 10
368991.213297006
 20
4066170.09629804
 10
369000
 20
4066174.01217842
  0
LWPOLYLINE
  5
200AB
100
AcDbEntity
  8
tertiary
100
AcDbPolyline
 70
0
 90
6
 10
368929.380343919
 20
4066229.01172659
 10
368928.440255009
 20
4066217.20838701
 10
368924.900545531
 20
4066192.55078535
 10
368922.083040067
 20
4066179.4668373
 10
368915.722689308
 20
4066170.07683733
 10
368907.332245908
 20
4066162.84848353
  0
LWPOLYLINE
  5
200AC
100
AcDbEntity
  8
residential
100
AcDbPolyline
 70
0
 90
7
 10
368977.184570435
 20
4066246.65495435
 10
368977.706488205
 20
4066237.58113849
 10
368971.168417359
 20
4066202.59425744
 10
368968.284637211
 20
4066191.00933655
 10
368964.071595448
 20
4066182.44083152
 10
368935.855530079
 20
4066154.3996522
 10
368932.545060504
 20
4066151.11034765
  0
LWPOLYLINE
  5
200AD
100
AcDbEntity
  8
residential
100
AcDbPolyline
 70
0
 90
5
 10
368977.184570435
 20
4066246.65495435
 10
368970.349931529
 20
4066240.11288157
 10
368960.820776811
 20
4066234.92148495
 10
368945.433005669
 20
4066230.9295247
 10
368929.380343919
 20
4066229.01172659
  0
LWPOLYLINE
  5
200AE
100
AcDbEntity
  8
residential
100
AcDbPolyline
 70
0
 90
3
 10
369000
 20
4066250.48408128
 10
368985.750457574
 20
4066249.02042807
 10
368977.184570435
 20
4066246.65495435
  0
LWPOLYLINE
  5
200AF
100
AcDbEntity
  8
tertiary
100
AcDbPolyline
 70
0
 90
8
 10
368957.02721993
 20
4066384.870822
 10
368945.527682676
 20
4066357.74971113
 10
368934.456904122
 20
4066321.31209715
 10
368925.265554562
 20
4066285.71121431
 10
368922.748189722
 20
4066271.81262226
 10
368922.878612719
 20
4066258.76116521
 10
368925.348472263
 20
4066246.25086849
 10
368929.380343919
 20
4066229.01172659
  0
LWPOLYLINE
  5
200B0
100
AcDbEntity
  8
service
100
AcDbPolyline
 70
0
 90
8
 10
368523.166236481
 20
4066139.229181
 10
368531.096681587
 20
4066139.75086322
 10
368534.400309757
 20
4066144.32731812
 10
368534.845753421
 20
4066173.30452232
 10
368577.599971768
 20
4066165.05739759
 10
368581.986078399
 20
4066162.19367971
 10
368584.676996353
 20
4066126.8987665
 10
368557.404453249
 20
4066125.475867
  0
LWPOLYLINE
  5
200B1
100
AcDbEntity
  8
residential
100
AcDbPolyline
 70
0
 90
2
 10
368540.507179267
 20
4066242.94788947
 10
368541.465430989
 20
4066255.31685198
  0
LWPOLYLINE
  5
200B2
100
AcDbEntity
  8
residential
100
AcDbPolyline
 70
0
 90
54
 10
368797.038438805
 20
4066246.89795435
 10
368774.787245655
 20
4066257.20400492
 10
368770.659046447
 20
4066258.83195617
 10
368765.641103643
 20
4066258.35413425
 10
368760.918215104
 20
4066254.98670073
 10
368756.89458665
 20
4066248.87880255
 10
368748.334872189
 20
4066222.47846948
 10
368746.260199989
 20
4066219.40329453
 10
368742.372721209
 20
4066214.60269824
 10
368738.778855207
 20
4066212.63829771
 10
368733.057909873
 20
4066211.74961732
 10
368707.956964415
 20
4066216.78436446
 10
368679.376929637
 20
4066225.00181969
 10
368645.086050063
 20
4066238.79985154
 10
368641.903059717
 20
4066241.48970726
 10
368640.042009633
 20
4066245.3465835
 10
368642.536015988
 20
4066264.67165589
 10
368633.022638402
 20
4066284.35871407
 10
368631.541172817
 20
4066289.08638514
 10
368631.309321276
 20
4066296.66885253
 10
368634.318448559
 20
4066313.47820337
 10
368635.833157855
 20
4066337.07937316
 10
368641.814520418
 20
4066355.50754393
 10
368644.812537693
 20
4066362.87395156
 10
368646.067315867
 20
4066368.39182883
 10
368645.251029025
 20
4066372.23265806
 10
368644.018948946
 20
4066375.16996159
 10
368640.374958634
 20
4066379.24286731
 10
368628.665908334
 20
4066386.22488979
 10
368622.255096429
 20
4066389.84096688
 10
368616.462553399
 20
4066391.26154008
 10
368612.762637184
 20
4066390.53053439
 10
368611.408578412
 20
4066389.59703981
 10
368608.796086868
 20
4066386.39700229
 10
368608.459304236
 20
4066380.75405966
 10
368610.295387169
 20
4066366.55562212
 10
368609.045148963
 20
4066360.17215258
 10
368605.905225775
 20
4066354.61666554
 10
368597.704803318
 20
4066344.06783731
 10
368595.714883223
 20
4066338.37262153
 10
368595.686758703
 20
4066324.3359847
 10
368592.617657421
 20
4066316.41585978
 10
368578.499534982
 20
4066301.47499769
 10
368577.259580722
 20
4066298.08742835
 10
368577.434567951
 20
4066294.94443033
 10
368586.053110066
 20
4066278.64438977
 10
368587.969368752
 20
4066273.73248468
 10
368588.273383032
 20
4066268.52355614
 10
368586.838644211
 20
4066264.08481154
 10
368584.332473418
 20
4066260.250646
 10
368581.514492447
 20
4066257.6307909
 10
368577.451945075
 20
4066255.97326493
 10
368551.203630317
 20
4066254.33492556
 10
368541.465430989
 20
4066255.31685198
  0
LWPOLYLINE
  5
200B3
100
AcDbEntity
  8
residential
100
AcDbPolyline
 70
0
 90
3
 10
368691.641793153
 20
4066319.93261347
 10
368697.137269093
 20
4066345.11494543
 10
368704.259681466
 20
4066348.86716885
  0
LWPOLYLINE
  5
200B4
100
AcDbEntity
  8
residential
100
AcDbPolyline
 70
0
 90
10
 10
368541.465430989
 20
4066255.31685198
 10
368548.775455344
 20
4066315.42518637
 10
368549.385322092
 20
4066322.56195765
 10
368549.153096241
 20
4066329.53412909
 10
368546.912534158
 20
4066338.91182289
 10
368543.751801368
 20
4066347.69335501
 10
368535.606318296
 20
4066365.70613167
 10
368518.097983432
 20
4066393.41695806
 10
368505.186230348
 20
4066409.88296434
 10
368499.837432224
 20
4066419.83000612
  0
LWPOLYLINE
  5
200B5
100
AcDbEntity
  8
service
100
AcDbPolyline
 70
0
 90
2
 10
368617.766510845
 20
4066412.76871109
 10
368612.762637184
 20
4066390.53053439
  0
LWPOLYLINE
  5
200B6
100
AcDbEntity
  8
tertiary
100
AcDbPolyline
 70
0
 90
10
 10
368704.259681466
 20
4066348.86716885
 10
368703.832790201
 20
4066361.20192527
 10
368707.195875132
 20
4066385.9509501
 10
368707.159660565
 20
4066398.13545445
 10
368703.645903333
 20
4066408.36488637
 10
368696.726398308
 20
4066420.73275408
 10
368680.19632402
 20
4066438.30820994
 10
368657.823506882
 20
4066461.58826658
 10
368650.919041382
 20
4066475.5094556
 10
368636.862347486
 20
4066505.24206494
  0
LWPOLYLINE
  5
200B7
100
AcDbEntity
  8
residential
100
AcDbPolyline
 70
0
 90
16
 10
368499.837432224
 20
4066419.83000612
 10
368504.290757541
 20
4066423.09047704
 10
368525.319486414
 20
4066445.43729786
 10
368538.69406185
 20
4066454.43067825
 10
368543.24222635
 20
4066456.89076204
 10
368548.561729164
 20
4066457.81877025
 10
368553.5612178
 20
4066456.52130394
 10
368561.901450799
 20
4066448.8585818
 10
368570.638212446
 20
4066442.58793317
 10
368577.627003779
 20
4066441.71486378
 10
368583.637539434
 20
4066442.27718583
 10
368589.179403278
 20
4066444.88847017
 10
368594.259604474
 20
4066448.26141413
 10
368618.791017369
 20
4066478.28888784
 10
368632.103100452
 20
4066500.66574507
 10
368636.862347486
 20
4066505.24206494
  0
LWPOLYLINE
  5
200B8
100
AcDbEntity
  8
tertiary
100
AcDbPolyline
 70
0
 90
2
 10
368636.862347486
 20
4066505.24206494
 10
368635.933689482
 20
4066512.81304627
  0
LWPOLYLINE
  5
200B9
100
AcDbEntity
  8
residential
100
AcDbPolyline
 70
0
 90
3
 10
368501.081556948
 20
4066497.83039945
 10
368511.773857098
 20
4066503.73576984
 10
368529.276841209
 20
4066523.32939346
  0
LWPOLYLINE
  5
200BA
100
AcDbEntity
  8
tertiary
100
AcDbPolyline
 70
0
 90
5
 10
368826.346332255
 20
4066169.67180299
 10
368817.33748345
 20
4066165.80415692
 10
368801.083574582
 20
4066150.19662042
 10
368801.376940158
 20
4066137.29800726
 10
368805.726812523
 20
4066094.22131409
  0
LWPOLYLINE
  5
200BB
100
AcDbEntity
  8
tertiary
100
AcDbPolyline
 70
0
 90
6
 10
368836.386496454
 20
4066125.4758797
 10
368842.90639545
 20
4066147.59104106
 10
368845.535386647
 20
4066156.52777542
 10
368841.102615259
 20
4066164.50754755
 10
368833.341824222
 20
4066168.05538642
 10
368826.346332255
 20
4066169.67180299
  0
LWPOLYLINE
  5
200BC
100
AcDbEntity
  8
tertiary
100
AcDbPolyline
 70
0
 90
4
 10
368826.346332255
 20
4066169.67180299
 10
368823.17941057
 20
4066183.3135686
 10
368806.501005802
 20
4066223.87183547
 10
368797.038438805
 20
4066246.89795435
  0
LWPOLYLINE
  5
200BD
100
AcDbEntity
  8
service
100
AcDbPolyline
 70
0
 90
3
 10
368842.411722401
 20
4066256.85458171
 10
368846.52247112
 20
4066230.79248055
 10
368806.501005802
 20
4066223.87183547
  0
LWPOLYLINE
  5
200BE
100
AcDbEntity
  8
tertiary
100
AcDbPolyline
 70
0
 90
6
 10
368797.038438805
 20
4066246.89795435
 10
368791.753810492
 20
4066262.80262021
 10
368786.635168437
 20
4066275.55334187
 10
368777.762773848
 20
4066294.54240883
 10
368770.000369617
 20
4066306.1241934
 10
368763.025918205
 20
4066313.17762344
  0
LWPOLYLINE
  5
200BF
100
AcDbEntity
  8
tertiary
100
AcDbPolyline
 70
0
 90
5
 10
368763.025918205
 20
4066313.17762344
 10
368748.762551167
 20
4066321.34161081
 10
368721.633823869
 20
4066333.89758567
 10
368712.420519584
 20
4066339.97564878
 10
368704.259681466
 20
4066348.86716885
  0
LWPOLYLINE
  5
200C0
100
AcDbEntity
  8
residential
100
AcDbPolyline
 70
0
 90
3
 10
368842.294544378
 20
4066418.67639979
 10
368851.921573831
 20
4066362.70233895
 10
368851.614884682
 20
4066356.68165183
  0
LWPOLYLINE
  5
200C1
100
AcDbEntity
  8
residential
100
AcDbPolyline
 70
0
 90
24
 10
368635.933689482
 20
4066512.81304627
 10
368659.424754189
 20
4066516.41365472
 10
368670.006948405
 20
4066515.74068606
 10
368682.429451237
 20
4066513.35280191
 10
368685.779887697
 20
4066511.10424477
 10
368688.538343103
 20
4066508.11021779
 10
368705.88139863
 20
4066484.74101529
 10
368737.861192617
 20
4066468.81484256
 10
368745.516816731
 20
4066460.76334082
 10
368754.526992446
 20
4066443.20355756
 10
368761.288311375
 20
4066426.34408828
 10
368765.248351081
 20
4066411.43621148
 10
368766.978723009
 20
4066397.31711543
 10
368766.507618014
 20
4066387.57053147
 10
368764.78419142
 20
4066377.69891183
 10
368761.547328433
 20
4066371.05740392
 10
368756.001068069
 20
4066364.08515582
 10
368754.976519024
 20
4066360.76083684
 10
368755.154955151
 20
4066356.6745904
 10
368764.280385156
 20
4066342.54187182
 10
368766.314784366
 20
4066333.10082988
 10
368766.847874926
 20
4066324.77028333
 10
368766.155629417
 20
4066318.65564534
 10
368763.025918205
 20
4066313.17762344
  0
LWPOLYLINE
  5
200C2
100
AcDbEntity
  8
residential
100
AcDbPolyline
 70
0
 90
5
 10
368817.736351389
 20
4066500.39034849
 10
368825.612414414
 20
4066489.23961834
 10
368832.193159102
 20
4066477.48736208
 10
368838.050026176
 20
4066449.40109102
 10
368842.294544378
 20
4066418.67639979
  0
LWPOLYLINE
  5
200C3
100
AcDbEntity
  8
residential
100
AcDbPolyline
 70
0
 90
10
 10
368817.736351389
 20
4066500.39034849
 10
368798.228858624
 20
4066524.15870653
 10
368794.275882516
 20
4066538.94440075
 10
368797.530823692
 20
4066556.08292107
 10
368803.207246304
 20
4066565.72744843
 10
368804.692745862
 20
4066568.2457529
 10
368823.285329769
 20
4066592.55033232
 10
368832.28700251
 20
4066604.13013776
 10
368845.523448847
 20
4066619.29574184
 10
368848.718150584
 20
4066625.52735391
  0
LWPOLYLINE
  5
200C4
100
AcDbEntity
  8
service
100
AcDbPolyline
 70
0
 90
2
 10
368307.965074635
 20
4066626.95860097
 10
368310.017615195
 20
4066626.27229532
  0
LWPOLYLINE
  5
200C5
100
AcDbEntity
  8
service
100
AcDbPolyline
 70
0
 90
12
 10
368310.017615195
 20
4066626.27229532
 10
368311.935788382
 20
4066626.71990437
 10
368313.376700041
 20
4066628.07368184
 10
368313.932561102
 20
4066629.95152944
 10
368313.65220765
 20
4066631.46497348
 10
368312.796463037
 20
4066632.73205892
 10
368311.496359241
 20
4066633.56212715
 10
368309.346499238
 20
4066633.72839497
 10
368307.454988283
 20
4066632.69226044
 10
368306.434300599
 20
4066630.78828254
 10
368306.633481077
 20
4066628.64358682
 10
368307.965074635
 20
4066626.95860097
  0
LWPOLYLINE
  5
200C6
100
AcDbEntity
  8
service
100
AcDbPolyline
 70
0
 90
3
 10
368313.932561102
 20
4066629.95152944
 10
368331.33219414
 20
4066630.63788658
 10
368335.712402434
 20
4066630.89223869
  0
LWPOLYLINE
  5
200C7
100
AcDbEntity
  8
residential
100
AcDbPolyline
 70
0
 90
6
 10
368160.122896808
 20
4066681.74557381
 10
368161.005311637
 20
4066647.45479528
 10
368156.053128196
 20
4066635.59128795
 10
368144.835233925
 20
4066624.56786621
 10
368131.75027841
 20
4066616.41396219
 10
368110.972657068
 20
4066612.12935232
  0
LWPOLYLINE
  5
200C8
100
AcDbEntity
  8
residential
100
AcDbPolyline
 70
0
 90
6
 10
368160.122896808
 20
4066681.74557381
 10
368137.525029998
 20
4066682.19390058
 10
368133.493453511
 20
4066684.27564189
 10
368131.635709054
 20
4066687.16719635
 10
368130.897003757
 20
4066690.23013428
 10
368129.169741783
 20
4066702.74036833
  0
LWPOLYLINE
  5
200C9
100
AcDbEntity
  8
residential
100
AcDbPolyline
 70
0
 90
16
 10
368205.063002141
 20
4066843.30618916
 10
368205.680665817
 20
4066813.26946432
 10
368212.268992154
 20
4066789.33257484
 10
368216.226576645
 20
4066786.50854212
 10
368239.487992282
 20
4066781.03455684
 10
368246.682218356
 20
4066777.28403784
 10
368250.363342364
 20
4066769.84812758
 10
368249.532837387
 20
4066764.05744231
 10
368227.970212099
 20
4066714.02259257
 10
368226.849708661
 20
4066705.06277228
 10
368228.339781605
 20
4066698.01570914
 10
368230.618347421
 20
4066691.13403976
 10
368231.924350359
 20
4066686.63091817
 10
368228.723031345
 20
4066682.89633727
 10
368222.486745175
 20
4066681.00616672
 10
368160.122896808
 20
4066681.74557381
  0
LWPOLYLINE
  5
200CA
100
AcDbEntity
  8
residential
100
AcDbPolyline
 70
0
 90
13
 10
368144.303443474
 20
4066947.41852251
 10
368151.90756053
 20
4066870.64641232
 10
368160.800332769
 20
4066811.98618382
 10
368160.356679375
 20
4066790.74317006
 10
368166.269176318
 20
4066761.78993442
 10
368167.101930947
 20
4066759.6132717
 10
368168.624781872
 20
4066757.59241706
 10
368180.525555937
 20
4066754.41287646
 10
368186.433083035
 20
4066751.78069966
 10
368189.63671061
 20
4066748.71305802
 10
368190.943059853
 20
4066743.65509676
 10
368189.671671273
 20
4066738.81441687
 10
368160.122896808
 20
4066681.74557381
  0
LWPOLYLINE
  5
200CB
100
AcDbEntity
  8
residential
100
AcDbPolyline
 70
0
 90
12
 10
368264.791599811
 20
4066816.51973129
 10
368270.14098877
 20
4066846.06503415
 10
368268.118512395
 20
4066852.17708937
 10
368246.15225604
 20
4066886.04925092
 10
368243.099676811
 20
4066887.90502435
 10
368240.34365412
 20
4066886.98209719
 10
368238.297895528
 20
4066882.30869574
 10
368238.571316155
 20
4066863.54025555
 10
368236.062812623
 20
4066856.07766091
 10
368226.691768592
 20
4066848.9649511
 10
368215.243685247
 20
4066845.00238832
 10
368205.063002141
 20
4066843.30618916
  0
LWPOLYLINE
  5
200CC
100
AcDbEntity
  8
residential
100
AcDbPolyline
 70
0
 90
8
 10
368211.550081338
 20
4066922.31334936
 10
368205.603297053
 20
4066914.85937421
 10
368195.108292275
 20
4066904.93441023
 10
368193.884925301
 20
4066898.57276476
 10
368194.848776025
 20
4066892.15520876
 10
368203.046803961
 20
4066864.88672551
 10
368204.78640229
 20
4066853.75228572
 10
368205.063002141
 20
4066843.30618916
  0
LWPOLYLINE
  5
200CD
100
AcDbEntity
  8
residential
100
AcDbPolyline
 70
0
 90
3
 10
368219.43210978
 20
4066935.96265293
 10
368213.550421505
 20
4066925.77792333
 10
368211.550081338
 20
4066922.31334936
  0
LWPOLYLINE
  5
200CE
100
AcDbEntity
  8
residential
100
AcDbPolyline
 70
0
 90
3
 10
368081.118620095
 20
4066712.48085275
 10
368073.46525814
 20
4066712.52125668
 10
368037.122105018
 20
4066709.47569554
  0
LWPOLYLINE
  5
200CF
100
AcDbEntity
  8
residential
100
AcDbPolyline
 70
0
 90
2
 10
368037.122105018
 20
4066709.47569554
 10
368025.016116044
 20
4066712.66969886
  0
LWPOLYLINE
  5
200D0
100
AcDbEntity
  8
residential
100
AcDbPolyline
 70
0
 90
2
 10
368025.016116044
 20
4066712.66969886
 10
368000
 20
4066724.24274857
  0
LWPOLYLINE
  5
200D1
100
AcDbEntity
  8
residential
100
AcDbPolyline
 70
0
 90
2
 10
368037.122105018
 20
4066709.47569554
 10
368032.778818904
 20
4066744.5966832
  0
LWPOLYLINE
  5
200D2
100
AcDbEntity
  8
residential
100
AcDbPolyline
 70
0
 90
2
 10
368000
 20
4066738.14948375
 10
368032.778818904
 20
4066744.5966832
  0
LWPOLYLINE
  5
200D3
100
AcDbEntity
  8
residential
100
AcDbPolyline
 70
0
 90
2
 10
368032.778818904
 20
4066744.5966832
 10
368027.243686779
 20
4066792.76340661
  0
LWPOLYLINE
  5
200D4
100
AcDbEntity
  8
residential
100
AcDbPolyline
 70
0
 90
2
 10
368027.243686779
 20
4066792.76340661
 10
368000
 20
4066787.61875017
  0
LWPOLYLINE
  5
200D5
100
AcDbEntity
  8
residential
100
AcDbPolyline
 70
0
 90
2
 10
368081.118620095
 20
4066712.48085275
 10
368060.779002825
 20
4066895.7321597
  0
LWPOLYLINE
  5
200D6
100
AcDbEntity
  8
residential
100
AcDbPolyline
 70
0
 90
5
 10
368000
 20
4066836.12484821
 10
368015.460909865
 20
4066838.87385004
 10
368020.11310158
 20
4066837.08207508
 10
368022.76409935
 20
4066833.51245615
 10
368027.243686779
 20
4066792.76340661
  0
LWPOLYLINE
  5
200D7
100
AcDbEntity
  8
residential
100
AcDbPolyline
 70
0
 90
4
 10
368103.785135872
 20
4066946.33461821
 10
368118.831265834
 20
4066802.00293879
 10
368128.753071782
 20
4066707.57378486
 10
368129.169741783
 20
4066702.74036833
  0
LWPOLYLINE
  5
200D8
100
AcDbEntity
  8
residential
100
AcDbPolyline
 70
0
 90
9
 10
368345.786332603
 20
4066714.97078976
 10
368346.269706096
 20
4066738.24384221
 10
368347.999126784
 20
4066772.83835202
 10
368351.322457102
 20
4066789.14345163
 10
368356.98543288
 20
4066801.95041647
 10
368362.570063229
 20
4066806.76909731
 10
368371.832465803
 20
4066810.31054618
 10
368388.040932353
 20
4066814.86583188
 10
368398.498711909
 20
4066818.89934865
  0
LWPOLYLINE
  5
200D9
100
AcDbEntity
  8
residential
100
AcDbPolyline
 70
0
 90
9
 10
368415.302806733
 20
4066776.85124831
 10
368413.751100985
 20
4066776.42017096
 10
368411.916331895
 20
4066775.00586025
 10
368410.848818885
 20
4066772.95833713
 10
368410.75080395
 20
4066770.65177037
 10
368411.637704607
 20
4066768.50759029
 10
368413.355288185
 20
4066766.94983835
 10
368415.568522908
 20
4066766.26108379
 10
368417.868383889
 20
4066766.55858655
  0
LWPOLYLINE
  5
200DA
100
AcDbEntity
  8
residential
100
AcDbPolyline
 70
0
 90
10
 10
368417.868383889
 20
4066766.55858655
 10
368419.472247607
 20
4066767.47710871
 10
368420.672891192
 20
4066768.8900828
 10
368421.315791149
 20
4066770.6223423
 10
368421.326272584
 20
4066772.46420245
 10
368420.692504737
 20
4066774.22720458
 10
368419.491092535
 20
4066775.66604665
 10
368417.871096439
 20
4066776.6008908
 10
368416.563493907
 20
4066776.9428125
 10
368415.302806733
 20
4066776.85124831
  0
LWPOLYLINE
  5
200DB
100
AcDbEntity
  8
residential
100
AcDbPolyline
 70
0
 90
5
 10
368398.498711909
 20
4066818.89934865
 10
368405.224680071
 20
4066809.67449243
 10
368410.355336237
 20
4066794.28233809
 10
368414.005398859
 20
4066784.23930073
 10
368415.302806733
 20
4066776.85124831
  0
LWPOLYLINE
  5
200DC
100
AcDbEntity
  8
residential
100
AcDbPolyline
 70
0
 90
12
 10
368398.498711909
 20
4066818.89934865
 10
368394.209462533
 20
4066830.35039412
 10
368387.307140766
 20
4066842.04140206
 10
368378.389088812
 20
4066854.48472017
 10
368375.085448484
 20
4066864.40038225
 10
368375.149054809
 20
4066869.69244262
 10
368376.405170643
 20
4066872.96877165
 10
368377.940080549
 20
4066876.95098626
 10
368388.187913943
 20
4066887.65672738
 10
368396.442889913
 20
4066898.28218868
 10
368406.026450667
 20
4066963.31563203
 10
368408.753435984
 20
4066969.89828238
  0
LWPOLYLINE
  5
200DD
100
AcDbEntity
  8
service
100
AcDbPolyline
 70
0
 90
12
 10
368324.68209127
 20
4066872.13398042
 10
368329.165798187
 20
4066877.95718395
 10
368339.263452974
 20
4066886.44587754
 10
368344.874493591
 20
4066897.62244548
 10
368349.375260492
 20
4066910.93554774
 10
368347.31468625
 20
4066931.39597208
 10
368349.458661819
 20
4066945.93269237
 10
368352.433743888
 20
4066951.22431002
 10
368358.158458042
 20
4066955.28626465
 10
368391.119844284
 20
4066968.47193188
 10
368398.856664718
 20
4066971.54863959
 10
368406.304174271
 20
4066974.39678003
  0
LWPOLYLINE
  5
200DE
100
AcDbEntity
  8
residential
100
AcDbPolyline
 70
0
 90
7
 10
368307.123540559
 20
4066975.32466435
 10
368362.844382058
 20
4066973.66763251
 10
368375.758477418
 20
4066974.83368374
 10
368397.145417046
 20
4066979.89736935
 10
368404.697608543
 20
4066977.36208496
 10
368406.304174271
 20
4066974.39678003
 10
368408.753435984
 20
4066969.89828238
  0
LWPOLYLINE
  5
200DF
100
AcDbEntity
  8
residential
100
AcDbPolyline
 70
0
 90
4
 10
368408.753435984
 20
4066969.89828238
 10
368413.252995676
 20
4066973.85706707
 10
368428.077828606
 20
4066980.79726884
 10
368467.225444668
 20
4067000
  0
LWPOLYLINE
  5
200E0
100
AcDbEntity
  8
residential
100
AcDbPolyline
 70
0
 90
2
 10
368506.223201834
 20
4067000
 10
368506.458200734
 20
4066999.59846211
  0
LWPOLYLINE
  5
200E1
100
AcDbEntity
  8
service
100
AcDbPolyline
 70
0
 90
4
 10
368440.177119243
 20
4067000
 10
368434.652345868
 20
4066995.39898348
 10
368417.720087567
 20
4066983.83066675
 10
368406.304174271
 20
4066974.39678003
  0
LWPOLYLINE
  5
200E2
100
AcDbEntity
  8
residential
100
AcDbPolyline
 70
0
 90
10
 10
368307.123540559
 20
4066975.32466435
 10
368304.67523438
 20
4066965.38660003
 10
368303.578070471
 20
4066953.29719155
 10
368308.554225196
 20
4066933.69066183
 10
368308.771601615
 20
4066924.61035723
 10
368307.247989532
 20
4066918.46415757
 10
368303.531479836
 20
4066912.58476213
 10
368293.40989344
 20
4066904.86213896
 10
368283.456018262
 20
4066899.9110746
 10
368273.308289135
 20
4066889.91408903
  0
LWPOLYLINE
  5
200E3
100
AcDbEntity
  8
residential
100
AcDbPolyline
 70
0
 90
5
 10
368144.303443474
 20
4066947.41852251
 10
368170.630198711
 20
4066947.90027908
 10
368178.487066893
 20
4066946.59181078
 10
368187.382314269
 20
4066941.3835555
 10
368211.550081338
 20
4066922.31334936
  0
LWPOLYLINE
  5
200E4
100
AcDbEntity
  8
residential
100
AcDbPolyline
 70
0
 90
3
 10
368219.43210978
 20
4066935.96265293
 10
368196.11195709
 20
4066951.50217126
 10
368170.534870358
 20
4066974.73316344
  0
LWPOLYLINE
  5
200E5
100
AcDbEntity
  8
residential
100
AcDbPolyline
 70
0
 90
8
 10
368273.034931792
 20
4067000
 10
368269.177439108
 20
4066993.36406645
 10
368265.929418743
 20
4066979.05520462
 10
368262.701918791
 20
4066951.00852745
 10
368261.949206672
 20
4066940.41184576
 10
368259.921870759
 20
4066932.87525208
 10
368253.577865392
 20
4066924.56183698
 10
368246.877867696
 20
4066919.22778111
  0
LWPOLYLINE
  5
200E6
100
AcDbEntity
  8
residential
100
AcDbPolyline
 70
0
 90
5
 10
368170.534870358
 20
4066974.73316344
 10
368161.533825683
 20
4066981.18588152
 10
368145.380416683
 20
4066990.03479576
 10
368139.646916839
 20
4066991.19958304
 10
368133.296714925
 20
4066991.17546006
  0
LWPOLYLINE
  5
200E7
100
AcDbEntity
  8
residential
100
AcDbPolyline
 70
0
 90
4
 10
368346.128004578
 20
4066998.74794222
 10
368314.689322248
 20
4066985.84969939
 10
368309.072178572
 20
4066980.65427124
 10
368307.123540559
 20
4066975.32466435
  0
LWPOLYLINE
  5
200E8
100
AcDbEntity
  8
residential
100
AcDbPolyline
 70
0
 90
6
 10
368237.662710918
 20
4067000
 10
368237.655067468
 20
4066999.96399148
 10
368233.302417952
 20
4066982.94241722
 10
368224.647926519
 20
4066945.82475294
 10
368221.382461922
 20
4066939.66102609
 10
368219.43210978
 20
4066935.96265293
  0
LWPOLYLINE
  5
200E9
100
AcDbEntity
  8
residential
100
AcDbPolyline
 70
0
 90
2
 10
368346.128004578
 20
4066998.74794222
 10
368347.076457451
 20
4067000
  0
LWPOLYLINE
  5
200EA
100
AcDbEntity
  8
residential
100
AcDbPolyline
 70
0
 90
4
 10
368170.534870358
 20
4066974.73316344
 10
368167.145179595
 20
4066987.15806324
 10
368166.55657863
 20
4066995.90011043
 10
368167.036653508
 20
4067000
  0
LWPOLYLINE
  5
200EB
100
AcDbEntity
  8
residential
100
AcDbPolyline
 70
0
 90
2
 10
368060.779002825
 20
4066895.7321597
 10
368000
 20
4066884.61284447
  0
LWPOLYLINE
  5
200EC
100
AcDbEntity
  8
residential
100
AcDbPolyline
 70
0
 90
4
 10
368056.169635989
 20
4066945.43810281
 10
368056.529196385
 20
4066941.53766917
 10
368060.457747251
 20
4066899.22142974
 10
368060.779002825
 20
4066895.7321597
  0
LWPOLYLINE
  5
200ED
100
AcDbEntity
  8
residential
100
AcDbPolyline
 70
0
 90
2
 10
368000
 20
4066940.77485081
 10
368056.169635989
 20
4066945.43810281
  0
LWPOLYLINE
  5
200EE
100
AcDbEntity
  8
residential
100
AcDbPolyline
 70
0
 90
2
 10
368056.169635989
 20
4066945.43810281
 10
368103.785135872
 20
4066946.33461821
  0
LWPOLYLINE
  5
200EF
100
AcDbEntity
  8
residential
100
AcDbPolyline
 70
0
 90
2
 10
368103.785135872
 20
4066946.33461821
 10
368144.303443474
 20
4066947.41852251
  0
LWPOLYLINE
  5
200F0
100
AcDbEntity
  8
residential
100
AcDbPolyline
 70
0
 90
3
 10
368133.296714925
 20
4066991.17546006
 10
368018.866076572
 20
4066988.30277345
 10
368000
 20
4066986.54000578
  0
LWPOLYLINE
  5
200F1
100
AcDbEntity
  8
residential
100
AcDbPolyline
 70
0
 90
3
 10
368132.601102106
 20
4067000
 10
368132.982793305
 20
4066995.14176467
 10
368133.296714925
 20
4066991.17546006
  0
LWPOLYLINE
  5
200F2
100
AcDbEntity
  8
residential
100
AcDbPolyline
 70
0
 90
3
 10
368957.02721993
 20
4066384.870822
 10
368999.886443193
 20
4066372.45189195
 10
369000
 20
4066372.3955809
  0
LWPOLYLINE
  5
200F3
100
AcDbEntity
  8
residential
100
AcDbPolyline
 70
0
 90
3
 10
369000
 20
4066336.62283102
 10
368976.601192175
 20
4066253.46603121
 10
368977.184570435
 20
4066246.65495435
  0
LWPOLYLINE
  5
200F4
100
AcDbEntity
  8
tertiary
100
AcDbPolyline
 70
0
 90
5
 10
368929.420108972
 20
4066532.28900018
 10
368965.467112362
 20
4066419.24044346
 10
368965.508325349
 20
4066412.60411799
 10
368964.317553946
 20
4066405.42075009
 10
368957.02721993
 20
4066384.870822
  0
LWPOLYLINE
  5
200F5
100
AcDbEntity
  8
residential
100
AcDbPolyline
 70
0
 90
10
 10
368842.294544378
 20
4066418.67639979
 10
368867.715812308
 20
4066438.06047181
 10
368871.726943151
 20
4066442.78154789
 10
368875.882224689
 20
4066451.66159673
 10
368876.884528623
 20
4066457.61613595
 10
368875.890107995
 20
4066473.14426884
 10
368878.746721352
 20
4066481.78901334
 10
368898.163131753
 20
4066510.89699268
 10
368910.611783532
 20
4066524.77648595
 10
368929.420108972
 20
4066532.28900018
  0
LWPOLYLINE
  5
200F6
100
AcDbEntity
  8
residential
100
AcDbPolyline
 70
0
 90
10
 10
368911.107859871
 20
4066592.09124785
 10
368897.184813852
 20
4066587.47773372
 10
368889.15098047
 20
4066584.26086996
 10
368883.328155722
 20
4066578.45791887
 10
368878.056767294
 20
4066561.43906506
 10
368875.37357973
 20
4066555.36604608
 10
368868.188793661
 20
4066544.03574625
 10
368857.236556737
 20
4066532.807616
 10
368844.101315118
 20
4066521.33556889
 10
368817.736351389
 20
4066500.39034849
  0
LWPOLYLINE
  5
200F7
100
AcDbEntity
  8
service
100
AcDbPolyline
 70
0
 90
8
 10
368894.491735848
 20
4066696.67515843
 10
368923.679111326
 20
4066706.61399325
 10
368944.779157935
 20
4066711.00657243
 10
368953.415607638
 20
4066712.76060791
 10
368961.332306985
 20
4066711.84033313
 10
368970.293567705
 20
4066705.06730866
 10
368980.809511278
 20
4066687.26276171
 10
369000
 20
4066628.15483266
  0
LWPOLYLINE
  5
200F8
100
AcDbEntity
  8
service
100
AcDbPolyline
 70
0
 90
7
 10
369000
 20
4066615.82638405
 10
368927.035531646
 20
4066590.5598934
 10
368975.852990033
 20
4066437.22404663
 10
368979.996976258
 20
4066424.38850759
 10
368985.20824965
 20
4066418.83810149
 10
368992.796239871
 20
4066414.51628579
 10
369000
 20
4066412.94209943
  0
LWPOLYLINE
  5
200F9
100
AcDbEntity
  8
tertiary
100
AcDbPolyline
 70
0
 90
2
 10
368911.107859871
 20
4066592.09124785
 10
368929.420108972
 20
4066532.28900018
  0
LWPOLYLINE
  5
200FA
100
AcDbEntity
  8
tertiary
100
AcDbPolyline
 70
0
 90
8
 10
368848.718150584
 20
4066625.52735391
 10
368853.066717282
 20
4066628.37903379
 10
368869.03959756
 20
4066635.62419611
 10
368878.612245253
 20
4066636.68691707
 10
368888.441702383
 20
4066635.85930823
 10
368895.413172412
 20
4066631.53575115
 10
368901.008464133
 20
4066625.41347555
 10
368911.107859871
 20
4066592.09124785
  0
LWPOLYLINE
  5
200FB
100
AcDbEntity
  8
service
100
AcDbPolyline
 70
0
 90
4
 10
368980.809511278
 20
4066687.26276171
 10
368904.623150559
 20
4066663.11939746
 10
368911.643504624
 20
4066640.43042016
 10
368927.035531646
 20
4066590.5598934
  0
LWPOLYLINE
  5
200FC
100
AcDbEntity
  8
service
100
AcDbPolyline
 70
0
 90
7
 10
369000
 20
4066742.20349147
 10
368965.70547524
 20
4066739.61439248
 10
368953.349228912
 20
4066742.81090493
 10
368943.045101704
 20
4066751.70176814
 10
368931.615957768
 20
4066755.94936572
 10
368926.31191144
 20
4066755.43146178
 10
368923.679111326
 20
4066706.61399325
  0
LWPOLYLINE
  5
200FD
100
AcDbEntity
  8
unknown
100
AcDbPolyline
 70
0
 90
5
 10
368926.31191144
 20
4066755.43146178
 10
368913.492332323
 20
4066761.60899467
 10
368907.725095865
 20
4066767.57855223
 10
368900.629939536
 20
4066781.30272659
 10
368896.268331708
 20
4066796.81591446
  0
LWPOLYLINE
  5
200FE
100
AcDbEntity
  8
residential
100
AcDbPolyline
 70
0
 90
3
 10
368529.276841209
 20
4066523.32939346
 10
368555.672082474
 20
4066533.997926
 10
368558.442364377
 20
4066538.74903194
  0
LWPOLYLINE
  5
200FF
100
AcDbEntity
  8
residential
100
AcDbPolyline
 70
0
 90
2
 10
368533.227815176
 20
4066543.29783967
 10
368529.276841209
 20
4066523.32939346
  0
LWPOLYLINE
  5
20100
100
AcDbEntity
  8
tertiary
100
AcDbPolyline
 70
0
 90
2
 10
368558.442364377
 20
4066538.74903194
 10
368533.227815176
 20
4066543.29783967
  0
LWPOLYLINE
  5
20101
100
AcDbEntity
  8
tertiary
100
AcDbPolyline
 70
0
 90
4
 10
368533.227815176
 20
4066543.29783967
 10
368513.472089835
 20
4066546.22036846
 10
368491.446431765
 20
4066551.37496131
 10
368481.068866915
 20
4066560.12326349
  0
LWPOLYLINE
  5
20102
100
AcDbEntity
  8
tertiary
100
AcDbPolyline
 70
0
 90
8
 10
368635.933689482
 20
4066512.81304627
 10
368634.45726699
 20
4066527.74942129
 10
368632.789529537
 20
4066545.92891394
 10
368631.282347596
 20
4066561.18756181
 10
368628.260808037
 20
4066569.14578624
 10
368620.664840584
 20
4066579.90403261
 10
368607.371770436
 20
4066590.72763282
 10
368583.046719262
 20
4066602.58632348
  0
LWPOLYLINE
  5
20103
100
AcDbEntity
  8
tertiary
100
AcDbPolyline
 70
0
 90
18
 10
368583.046719262
 20
4066602.58632348
 10
368566.460613028
 20
4066605.43782972
 10
368550.924289733
 20
4066607.44099282
 10
368547.225762743
 20
4066607.37578791
 10
368543.635809807
 20
4066606.82066922
 10
368539.906582348
 20
4066604.7585685
 10
368538.44512716
 20
4066601.48537475
 10
368540.047111328
 20
4066595.89030047
 10
368543.141224773
 20
4066590.91588469
 10
368549.667332328
 20
4066583.19226032
 10
368558.611823463
 20
4066575.91971314
 10
368568.045262211
 20
4066569.66053901
 10
368572.778398914
 20
4066563.24059072
 10
368573.584632908
 20
4066558.16819397
 10
368573.301805807
 20
4066551.96959607
 10
368569.563530626
 20
4066542.92792089
 10
368563.447945028
 20
4066537.85094973
 10
368558.442364377
 20
4066538.74903194
  0
LWPOLYLINE
  5
20104
100
AcDbEntity
  8
residential
100
AcDbPolyline
 70
0
 90
16
 10
368680.813109396
 20
4066623.86544136
 10
368672.693252881
 20
4066630.17089508
 10
368665.101859111
 20
4066637.15622314
 10
368661.245895073
 20
4066644.28391907
 10
368658.618331025
 20
4066651.72564352
 10
368655.769187332
 20
4066668.58060446
 10
368653.996708732
 20
4066673.5457735
 10
368649.233276017
 20
4066676.24881577
 10
368644.054503284
 20
4066675.75135259
 10
368639.729026916
 20
4066673.24341354
 10
368636.144242369
 20
4066668.37163915
 10
368631.94986301
 20
4066654.63203073
 10
368628.973216677
 20
4066645.74507912
 10
368623.098810572
 20
4066637.75708048
 10
368621.469247937
 20
4066636.32847604
 10
368583.046719262
 20
4066602.58632348
  0
LWPOLYLINE
  5
20105
100
AcDbEntity
  8
service
100
AcDbPolyline
 70
0
 90
5
 10
368587.964547311
 20
4066679.66473018
 10
368598.026712936
 20
4066670.15574255
 10
368605.533040597
 20
4066659.96476897
 10
368616.054376732
 20
4066643.13615427
 10
368621.469247937
 20
4066636.32847604
  0
LWPOLYLINE
  5
20106
100
AcDbEntity
  8
residential
100
AcDbPolyline
 70
0
 90
4
 10
368680.813109396
 20
4066623.86544136
 10
368693.936956129
 20
4066685.77099892
 10
368698.233530052
 20
4066716.64205741
 10
368699.217498725
 20
4066723.14059228
  0
LWPOLYLINE
  5
20107
100
AcDbEntity
  8
residential
100
AcDbPolyline
 70
0
 90
51
 10
368481.068866915
 20
4066560.12326349
 10
368484.053314375
 20
4066568.34425987
 10
368484.11320965
 20
4066582.6911232
 10
368477.865392398
 20
4066596.8908806
 10
368467.841258113
 20
4066607.7088135
 10
368454.815272668
 20
4066620.20412592
 10
368443.873971956
 20
4066635.84098865
 10
368440.316271074
 20
4066644.92828564
 10
368440.484877918
 20
4066650.66258794
 10
368442.892513573
 20
4066655.6411683
 10
368448.813469588
 20
4066659.67797601
 10
368454.270946548
 20
4066660.29309593
 10
368474.094006857
 20
4066654.21797329
 10
368488.038016201
 20
4066653.21564881
 10
368497.667981602
 20
4066653.35605317
 10
368505.304203914
 20
4066655.10283229
 10
368509.416229121
 20
4066658.24648874
 10
368512.331300677
 20
4066662.54039672
 10
368513.372351135
 20
4066666.35268334
 10
368513.125796147
 20
4066671.22784161
 10
368511.088940479
 20
4066676.41903942
 10
368507.562587322
 20
4066682.32112675
 10
368503.037382592
 20
4066688.31625222
 10
368500.448928499
 20
4066694.22611254
 10
368500.298782194
 20
4066698.40070901
 10
368501.194923138
 20
4066702.08206485
 10
368502.844626852
 20
4066704.81972519
 10
368505.673868797
 20
4066707.01771046
 10
368523.450756381
 20
4066714.24558901
 10
368529.602015422
 20
4066720.48711345
 10
368530.149149997
 20
4066729.93292561
 10
368526.058618665
 20
4066740.38215272
 10
368522.114494735
 20
4066748.15487254
 10
368522.474763019
 20
4066754.74065902
 10
368522.623533596
 20
4066757.44591958
 10
368527.552339999
 20
4066767.24602527
 10
368526.47098363
 20
4066781.7214035
 10
368527.485996989
 20
4066794.87735272
 10
368533.286511252
 20
4066805.03024234
 10
368538.271664626
 20
4066809.20355685
 10
368541.494195601
 20
4066810.26366172
 10
368544.758189288
 20
4066810.5352782
 10
368550.000484669
 20
4066808.7791104
 10
368555.900192229
 20
4066802.72958748
 10
368567.086216942
 20
4066775.12706732
 10
368570.637000427
 20
4066771.97656183
 10
368575.997276415
 20
4066770.34065938
 10
368582.115752981
 20
4066770.96789068
 10
368597.847227082
 20
4066781.10134863
 10
368601.00156793
 20
4066782.37335753
 10
368604.058840224
 20
4066782.55940177
  0
LWPOLYLINE
  5
20108
100
AcDbEntity
  8
footway
100
AcDbPolyline
 70
0
 90
15
 10
368803.207246304
 20
4066565.72744843
 10
368776.660058412
 20
4066572.48199248
 10
368776.758901218
 20
4066574.26701076
 10
368778.445314099
 20
4066591.04121941
 10
368779.278033565
 20
4066603.40102891
 10
368776.809075878
 20
4066629.91514794
 10
368774.527688775
 20
4066648.28156502
 10
368770.817154657
 20
4066656.16153769
 10
368769.066702605
 20
4066660.23862232
 10
368768.278866848
 20
4066663.0248369
 10
368768.389763724
 20
4066668.50480273
 10
368767.73268853
 20
4066674.57357274
 10
368766.458771097
 20
4066677.11202845
 10
368765.955360023
 20
4066678.06295665
 10
368768.492778814
 20
4066685.69169052
  0
LWPOLYLINE
  5
20109
100
AcDbEntity
  8
residential
100
AcDbPolyline
 70
0
 90
10
 10
368758.218124156
 20
4066695.91390774
 10
368745.684621718
 20
4066657.88996201
 10
368735.700206937
 20
4066627.09510466
 10
368734.825551346
 20
4066617.24374786
 10
368735.931646084
 20
4066608.42724807
 10
368741.307477359
 20
4066590.92323031
 10
368741.274980062
 20
4066585.89701751
 10
368738.502210681
 20
4066582.72159733
 10
368734.488092983
 20
4066582.4614187
 10
368680.813109396
 20
4066623.86544136
  0
LWPOLYLINE
  5
2010A
100
AcDbEntity
  8
tertiary
100
AcDbPolyline
 70
0
 90
9
 10
368758.218124156
 20
4066695.91390774
 10
368768.492778814
 20
4066685.69169052
 10
368775.54770916
 20
4066679.24731998
 10
368786.70983561
 20
4066661.08861136
 10
368804.2338526
 20
4066643.69783249
 10
368813.842310309
 20
4066637.78023896
 10
368830.340714015
 20
4066632.12314632
 10
368841.599568844
 20
4066628.41066273
 10
368848.718150584
 20
4066625.52735391
  0
LWPOLYLINE
  5
2010B
100
AcDbEntity
  8
tertiary
100
AcDbPolyline
 70
0
 90
5
 10
368699.217498725
 20
4066723.14059228
 10
368710.890278691
 20
4066721.38565259
 10
368722.62748521
 20
4066718.00965133
 10
368744.88753943
 20
4066704.87366118
 10
368758.218124156
 20
4066695.91390774
  0
LWPOLYLINE
  5
2010C
100
AcDbEntity
  8
residential
100
AcDbPolyline
 70
0
 90
12
 10
368699.217498725
 20
4066723.14059228
 10
368700.598088952
 20
4066729.87715983
 10
368707.738117692
 20
4066747.01148102
 10
368715.280097716
 20
4066757.17103492
 10
368718.999560363
 20
4066760.93112201
 10
368722.493555502
 20
4066763.38528552
 10
368735.47037348
 20
4066767.45820992
 10
368755.089207622
 20
4066771.93963799
 10
368765.027776453
 20
4066775.90389137
 10
368772.600436643
 20
4066780.50367717
 10
368783.49759272
 20
4066793.974032
 10
368795.814818641
 20
4066800.46510649
  0
LWPOLYLINE
  5
2010D
100
AcDbEntity
  8
service
100
AcDbPolyline
 70
0
 90
2
 10
368718.999560363
 20
4066760.93112201
 10
368708.47932323
 20
4066789.46640037
  0
LWPOLYLINE
  5
2010E
100
AcDbEntity
  8
residential
100
AcDbPolyline
 70
0
 90
4
 10
368795.814818641
 20
4066800.46510649
 10
368802.963970051
 20
4066787.36141209
 10
368810.864818062
 20
4066769.69662939
 10
368814.249906409
 20
4066755.74078732
  0
LWPOLYLINE
  5
2010F
100
AcDbEntity
  8
residential
100
AcDbPolyline
 70
0
 90
9
 10
368795.814818641
 20
4066800.46510649
 10
368797.431900509
 20
4066807.48656661
 10
368796.707168964
 20
4066816.13076024
 10
368795.630510623
 20
4066821.6289499
 10
368785.108597315
 20
4066840.75432636
 10
368773.486566028
 20
4066852.20673052
 10
368760.889049642
 20
4066869.3444352
 10
368742.293111419
 20
4066905.88215268
 10
368738.631101501
 20
4066916.91280957
  0
LWPOLYLINE
  5
20110
100
AcDbEntity
  8
residential
100
AcDbPolyline
 70
0
 90
2
 10
368763.710416042
 20
4067000
 10
368767.854332493
 20
4066976.352022
  0
LWPOLYLINE
  5
20111
100
AcDbEntity
  8
tertiary
100
AcDbPolyline
 70
0
 90
6
 10
368621.348315333
 20
4066726.11213172
 10
368630.7809432
 20
4066719.80864656
 10
368639.063910654
 20
4066720.05867382
 10
368660.974287184
 20
4066725.44789087
 10
368677.211265855
 20
4066725.46481755
 10
368699.217498725
 20
4066723.14059228
  0
LWPOLYLINE
  5
20112
100
AcDbEntity
  8
residential
100
AcDbPolyline
 70
0
 90
8
 10
368604.058840224
 20
4066782.55940177
 10
368606.002681996
 20
4066781.77496821
 10
368610.94193421
 20
4066780.05678549
 10
368614.404146715
 20
4066775.20989463
 10
368612.753317153
 20
4066753.79681579
 10
368613.203461211
 20
4066745.31217007
 10
368615.126992675
 20
4066737.39299942
 10
368621.348315333
 20
4066726.11213172
  0
LWPOLYLINE
  5
20113
100
AcDbEntity
  8
steps
100
AcDbPolyline
 70
0
 90
2
 10
368522.474763019
 20
4066754.74065902
 10
368492.198838469
 20
4066759.41183189
  0
LWPOLYLINE
  5
20114
100
AcDbEntity
  8
residential
100
AcDbPolyline
 70
0
 90
3
 10
368604.058840224
 20
4066782.55940177
 10
368609.65871567
 20
4066803.49012876
 10
368612.045328667
 20
4066809.43447081
  0
LWPOLYLINE
  5
20115
100
AcDbEntity
  8
residential
100
AcDbPolyline
 70
0
 90
4
 10
368695.171780541
 20
4066867.95655988
 10
368690.442855454
 20
4066860.10628135
 10
368656.574807866
 20
4066799.51803761
 10
368621.348315333
 20
4066726.11213172
  0
LWPOLYLINE
  5
20116
100
AcDbEntity
  8
residential
100
AcDbPolyline
 70
0
 90
26
 10
368506.458200734
 20
4066999.59846211
 10
368504.91528038
 20
4066979.99245882
 10
368507.186010081
 20
4066963.30166897
 10
368509.152719529
 20
4066956.45816316
 10
368514.758381407
 20
4066951.62264691
 10
368529.989984091
 20
4066947.8486336
 10
368540.980662708
 20
4066945.31608313
 10
368547.715296197
 20
4066940.71845106
 10
368552.927228997
 20
4066932.9262465
 10
368557.593171603
 20
4066921.56936315
 10
368566.807377349
 20
4066898.16943174
 10
368571.096862769
 20
4066887.88360975
 10
368577.19987629
 20
4066884.60510092
 10
368582.324894087
 20
4066885.68036319
 10
368586.195984407
 20
4066889.42696637
 10
368592.343506415
 20
4066917.51761117
 10
368603.315658825
 20
4066949.80626842
 10
368607.608774022
 20
4066956.60903039
 10
368614.597379845
 20
4066959.81949016
 10
368620.833730761
 20
4066959.98997525
 10
368626.257166266
 20
4066956.07834478
 10
368629.9687468
 20
4066947.1219172
 10
368644.737710872
 20
4066917.30062516
 10
368651.429101639
 20
4066911.62738166
 10
368664.224895458
 20
4066902.76444853
 10
368695.171780541
 20
4066867.95655988
  0
LWPOLYLINE
  5
20117
100
AcDbEntity
  8
residential
100
AcDbPolyline
 70
0
 90
10
 10
368695.171780541
 20
4066867.95655988
 10
368700.993119984
 20
4066874.24765152
 10
368704.180529954
 20
4066877.09489181
 10
368706.622686901
 20
4066880.26427911
 10
368707.673398158
 20
4066887.0392032
 10
368696.965139455
 20
4066923.0897288
 10
368689.904861254
 20
4066947.7769104
 10
368678.701325031
 20
4066971.34041183
 10
368670.305928289
 20
4066993.40715428
 10
368668.332316642
 20
4067000
  0
LWPOLYLINE
  5
20118
100
AcDbEntity
  8
service
100
AcDbPolyline
 70
0
 90
7
 10
368570.172299587
 20
4066968.33641708
 10
368565.96355024
 20
4066962.37571058
 10
368561.834902331
 20
4066960.46400078
 10
368557.631572602
 20
4066960.08475946
 10
368552.824951215
 20
4066960.54703356
 10
368551.105849333
 20
4066962.00491331
 10
368549.970689886
 20
4066965.42899456
  0
LWPOLYLINE
  5
20119
100
AcDbEntity
  8
residential
100
AcDbPolyline
 70
0
 90
11
 10
368506.458200734
 20
4066999.59846211
 10
368508.377128336
 20
4066993.13297169
 10
368515.858711606
 20
4066970.32554264
 10
368522.002821255
 20
4066965.65929451
 10
368537.42439947
 20
4066964.36799063
 10
368549.970689886
 20
4066965.42899456
 10
368552.572874563
 20
4066965.64420748
 10
368559.885197559
 20
4066970.15903454
 10
368564.436991222
 20
4066976.35858779
 10
368571.9108816
 20
4066995.45175516
 10
368573.244343176
 20
4067000
  0
LWPOLYLINE
  5
2011A
100
AcDbEntity
  8
unclassified
100
AcDbPolyline
 70
0
 90
13
 10
368939.57866161
 20
4067000
 10
368948.596084847
 20
4066988.58217091
 10
368957.026626953
 20
4066968.17966715
 10
368957.573817386
 20
4066946.77725117
 10
368958.175946523
 20
4066925.46276595
 10
368958.939985577
 20
4066905.3886067
 10
368962.815341442
 20
4066884.3679489
 10
368978.237108363
 20
4066855.10320582
 10
368980.333513295
 20
4066842.70959676
 10
368979.486897283
 20
4066828.84086742
 10
368981.021668168
 20
4066813.01595547
 10
368993.308749718
 20
4066792.48783128
 10
369000
 20
4066784.39233694
  0
ENDSEC
  0
SECTION
  2
OBJECTS
  0
DICTIONARY
  5
C
330
0
100
AcDbDictionary
281
     1
  3
ACAD_GROUP
350
D
  3
ACAD_LAYOUT
350
1A
  3
ACAD_MLEADERSTYLE
350
43
  3
ACAD_PLOTSETTINGS
350
19
  3
ACAD_PLOTSTYLENAME
350
E
  3
ACAD_TABLESTYLE
350
42
  0
DICTIONARY
  5
D
102
{ACAD_REACTORS
330
C
102
}
330
C
100
AcDbDictionary
281
     1
  0
DICTIONARY
  5
1A
102
{ACAD_REACTORS
330
C
102
}
330
C
100
AcDbDictionary
281
     1
  3
Layout1
350
1E
  3
Model
350
22
  0
DICTIONARY
  5
43
102
{ACAD_REACTORS
330
C
102
}
330
C
100
AcDbDictionary
281
     1
  0
DICTIONARY
  5
19
102
{ACAD_REACTORS
330
C
102
}
330
C
100
AcDbDictionary
281
     1
  0
ACDBDICTIONARYWDFLT
  5
E
102
{ACAD_REACTORS
330
C
102
}
330
C
100
AcDbDictionary
281
     1
  3
Normal
350
F
100
AcDbDictionaryWithDefault
340
F
  0
DICTIONARY
  5
42
102
{ACAD_REACTORS
330
C
102
}
330
C
100
AcDbDictionary
281
     1
  0
LAYOUT
  5
1E
102
{ACAD_REACTORS
330
1A
102
}
330
1A
100
AcDbPlotSettings
  1

  2
none_device
  4

  6

 40
0.0
 41
0.0
 42
0.0
 43
0.0
 44
0.0
 45
0.0
 46
0.0
 47
0.0
 48
0.0
 49
0.0
140
0.0
141
0.0
142
1.0
143
1.0
 70
   688
 72
     0
 73
     0
 74
     5
  7

 75
    16
 76
     0
 77
     2
 78
   300
147
1.0
148
0.0
149
0.0
100
AcDbLayout
  1
Layout1
 70
     1
 71
     1
 10
0.0
 20
0.0
 11
12.0
 21
9.0
 12
0.0
 22
0.0
 32
0.0
 14
1.000000000000000E+20
 24
1.000000000000000E+20
 34
1.000000000000000E+20
 15
-1.000000000000000E+20
 25
-1.000000000000000E+20
 35
-1.000000000000000E+20
146
0.0
 13
0.0
 23
0.0
 33
0.0
 16
1.0
 26
0.0
 36
0.0
 17
0.0
 27
1.0
 37
0.0
 76
     0
330
1B
  0
LAYOUT
  5
22
102
{ACAD_REACTORS
330
1A
102
}
330
1A
100
AcDbPlotSettings
  1

  2
none_device
  4

  6

 40
0.0
 41
0.0
 42
0.0
 43
0.0
 44
0.0
 45
0.0
 46
0.0
 47
0.0
 48
0.0
 49
0.0
140
0.0
141
0.0
142
1.0
143
1.0
 70
  1712
 72
     0
 73
     0
 74
     0
  7

 75
     0
 76
     0
 77
     2
 78
   300
147
1.0
148
0.0
149
0.0
100
AcDbLayout
  1
Model
 70
     1
 71
     0
 10
0.0
 20
0.0
 11
12.0
 21
9.0
 12
0.0
 22
0.0
 32
0.0
 14
30.0
 24
49.75
 34
0.0
 15
130.5
 25
163.1318914119703
 35
0.0
146
0.0
 13
0.0
 23
0.0
 33
0.0
 16
1.0
 26
0.0
 36
0.0
 17
0.0
 27
1.0
 37
0.0
 76
     0
330
1F
331
29
  0
ACDBPLACEHOLDER
  5
F
102
{ACAD_REACTORS
330
E
102
}
330
E
  0
ENDSEC
  0
EOF
